<svg width="419" height="33" viewBox="0 0 419 33" fill="none" xmlns="http://www.w3.org/2000/svg">
<line x1="0.638419" y1="1.30401" x2="11.304" y2="31.3616" stroke="#442526" stroke-linecap="round"/>
<path d="M11 32.0071L418 32" stroke="#442526" stroke-linecap="round"/>
<path d="M27.25 7.75L22.95 7.9L22.075 13.125H20.425L20.85 6.425H36.425L36.725 13.125H35.15L34.325 7.9L30 7.75V23.525L33.55 23.775V25H24V23.775L27.25 23.525V7.75ZM38.4846 23.775L40.3596 23.625V13.05L38.5596 12.6V11.25L42.0096 10.8H42.0596L42.6096 11.25V11.7L42.5346 13.65H42.6096C42.7762 13.3667 43.0762 13 43.5096 12.55C43.9429 12.1 44.5012 11.6917 45.1846 11.325C45.8679 10.9417 46.6096 10.75 47.4096 10.75C47.7429 10.75 48.0179 10.7917 48.2346 10.875V13.675C48.1179 13.5917 47.9262 13.5167 47.6596 13.45C47.4096 13.3667 47.1262 13.325 46.8096 13.325C45.4262 13.325 44.1429 13.75 42.9596 14.6V23.6L46.1346 23.8V25H38.4846V23.775ZM55.3348 25.275C53.7848 25.275 52.6848 24.8583 52.0348 24.025C51.3848 23.1917 51.0598 21.8167 51.0598 19.9V12.65L49.6598 12.25V11.15L53.1598 10.825H53.1848L53.6598 11.125V19.7C53.6598 20.6667 53.7264 21.425 53.8598 21.975C54.0098 22.5083 54.2598 22.9083 54.6098 23.175C54.9764 23.425 55.5014 23.55 56.1848 23.55C56.8514 23.55 57.4764 23.4083 58.0598 23.125C58.6431 22.8417 59.1514 22.5083 59.5848 22.125V12.65L57.7848 12.25V11.15L60.8348 10.825C61.3848 10.675 61.8264 10.425 62.1598 10.075C62.4931 9.70833 62.6598 9.15 62.6598 8.4C62.6598 8.15 62.6514 7.98333 62.6348 7.9H64.8848C64.9181 8.16667 64.9348 8.35 64.9348 8.45C64.9348 9.41667 64.6931 10.2 64.2098 10.8C63.7431 11.3833 63.0681 11.8333 62.1848 12.15V23.725H63.6848L63.6598 24.85C63.1931 24.9667 62.7848 25.0583 62.4348 25.125C62.1014 25.1917 61.7098 25.225 61.2598 25.225C60.7931 25.225 60.4431 25.1333 60.2098 24.95C59.9931 24.7667 59.8848 24.4667 59.8848 24.05V23.2C59.3348 23.75 58.6431 24.2333 57.8098 24.65C56.9931 25.0667 56.1681 25.275 55.3348 25.275ZM65.5807 18.025C65.5807 16.525 65.889 15.225 66.5057 14.125C67.1223 13.025 67.9307 12.1917 68.9307 11.625C69.9473 11.0417 71.0307 10.75 72.1807 10.75C73.3473 10.75 74.364 10.9667 75.2307 11.4C75.9973 11.2333 76.5557 10.85 76.9057 10.25C77.2557 9.63333 77.4307 9.01667 77.4307 8.4C77.4307 8.15 77.4223 7.98333 77.4057 7.9H79.6307C79.664 8.16667 79.6807 8.35 79.6807 8.45C79.6807 9.46667 79.4223 10.3417 78.9057 11.075C78.4057 11.7917 77.714 12.3083 76.8307 12.625C77.9473 13.9083 78.5057 15.7 78.5057 18C78.5057 19.5167 78.1973 20.825 77.5807 21.925C76.964 23.025 76.1473 23.8583 75.1307 24.425C74.1307 24.9917 73.0557 25.275 71.9057 25.275C69.8057 25.275 68.2223 24.6083 67.1557 23.275C66.1057 21.9417 65.5807 20.1917 65.5807 18.025ZM68.4557 17.825C68.4557 19.675 68.7473 21.1417 69.3307 22.225C69.914 23.3083 70.8223 23.85 72.0557 23.85C73.2057 23.85 74.089 23.375 74.7057 22.425C75.3223 21.475 75.6307 20.0667 75.6307 18.2C75.6307 16.35 75.3473 14.8833 74.7807 13.8C74.214 12.7167 73.3057 12.175 72.0557 12.175C70.9057 12.175 70.014 12.65 69.3807 13.6C68.764 14.55 68.4557 15.9583 68.4557 17.825ZM72.9057 8.675C72.5723 8.54167 72.0557 8.20833 71.3557 7.675C70.6557 7.14167 69.9807 6.56667 69.3307 5.95C68.6807 5.33333 68.2473 4.84167 68.0307 4.475L69.8307 2.9L73.8557 7.85L72.9307 8.675H72.9057ZM82.1709 13.05L80.3709 12.6V11.25L83.9459 10.8H84.0209L84.5459 11.25V12.3L84.5209 12.9C85.1209 12.3667 85.9126 11.8833 86.8959 11.45C87.8792 11.0167 88.8209 10.8 89.7209 10.8C90.7709 10.8 91.5792 11 92.1459 11.4C92.7292 11.8 93.1376 12.4167 93.3709 13.25C93.6042 14.0667 93.7209 15.175 93.7209 16.575V23.575L95.4709 23.75V25H89.5459V23.775L91.0959 23.575V16.55C91.0959 15.5667 91.0292 14.8 90.8959 14.25C90.7626 13.6833 90.5126 13.2667 90.1459 13C89.7792 12.7167 89.2459 12.575 88.5459 12.575C87.9459 12.575 87.3042 12.725 86.6209 13.025C85.9376 13.325 85.3292 13.675 84.7959 14.075V23.55L86.4959 23.775V25H80.5959V23.775L82.1709 23.55V13.05ZM103.247 31.75C101.114 31.75 99.5641 31.4083 98.5975 30.725C97.6475 30.0583 97.1725 29.1333 97.1725 27.95C97.1725 27.2167 97.3975 26.5417 97.8475 25.925C98.3141 25.3083 98.8641 24.8417 99.4975 24.525C98.7308 24.0917 98.3475 23.3917 98.3475 22.425C98.3475 21.825 98.5225 21.2583 98.8725 20.725C99.2225 20.1917 99.6808 19.7833 100.247 19.5C99.4141 19.1333 98.7725 18.6083 98.3225 17.925C97.8891 17.2417 97.6725 16.4333 97.6725 15.5C97.6725 14.5333 97.9391 13.6917 98.4725 12.975C99.0225 12.2583 99.7391 11.7083 100.622 11.325C101.522 10.9417 102.472 10.75 103.472 10.75C105.156 10.75 106.472 11.1 107.422 11.8C107.672 11.55 108.056 11.3083 108.572 11.075C109.089 10.8417 109.639 10.725 110.222 10.725H111.072V12.925H108.322C108.722 13.5417 108.922 14.2583 108.922 15.075C108.922 16.0583 108.672 16.9333 108.172 17.7C107.689 18.45 107.006 19.0333 106.122 19.45C105.256 19.8667 104.272 20.075 103.172 20.075C102.456 20.075 101.814 20 101.247 19.85C101.014 20.0833 100.822 20.3417 100.672 20.625C100.522 20.9083 100.447 21.1833 100.447 21.45C100.447 22.05 100.647 22.4667 101.047 22.7C101.447 22.9167 102.164 23.025 103.197 23.025H106.022C107.639 23.025 108.839 23.3333 109.622 23.95C110.406 24.5667 110.797 25.4417 110.797 26.575C110.797 27.525 110.456 28.3917 109.772 29.175C109.089 29.975 108.164 30.6 106.997 31.05C105.847 31.5167 104.597 31.75 103.247 31.75ZM103.422 18.7C105.322 18.7 106.272 17.575 106.272 15.325C106.272 14.2083 106.022 13.3917 105.522 12.875C105.039 12.3417 104.306 12.075 103.322 12.075C102.406 12.075 101.681 12.3333 101.147 12.85C100.614 13.35 100.347 14.1583 100.347 15.275C100.347 16.325 100.597 17.1583 101.097 17.775C101.614 18.3917 102.389 18.7 103.422 18.7ZM103.472 30.3C104.289 30.3 105.056 30.175 105.772 29.925C106.506 29.6917 107.097 29.3333 107.547 28.85C107.997 28.3833 108.222 27.8333 108.222 27.2C108.222 26.45 108.022 25.9 107.622 25.55C107.222 25.2167 106.447 25.05 105.297 25.05H102.347C101.681 25.05 101.156 25.0083 100.772 24.925C100.089 25.675 99.7475 26.5167 99.7475 27.45C99.7475 28.3833 100.031 29.0917 100.597 29.575C101.164 30.0583 102.122 30.3 103.472 30.3ZM120.491 7.975L118.541 7.675V6.425H121.816C122.332 6.425 123.074 6.39167 124.041 6.325C125.007 6.25833 125.732 6.225 126.216 6.225C129.316 6.225 131.616 7.00833 133.116 8.575C134.632 10.125 135.391 12.3083 135.391 15.125C135.391 17.0917 134.999 18.8417 134.216 20.375C133.449 21.8917 132.366 23.075 130.966 23.925C129.566 24.775 127.957 25.2 126.141 25.2C125.741 25.2 125.057 25.1667 124.091 25.1C123.091 25.0333 122.341 25 121.841 25H118.416V23.775L120.491 23.525V7.975ZM123.141 23.6C123.724 23.7333 124.474 23.8 125.391 23.8H126.141C127.391 23.7833 128.491 23.4667 129.441 22.85C130.407 22.2333 131.157 21.3167 131.691 20.1C132.224 18.8667 132.491 17.375 132.491 15.625C132.491 12.9917 131.916 10.9917 130.766 9.625C129.632 8.25833 127.916 7.575 125.616 7.575C125.132 7.575 124.557 7.60833 123.891 7.675C123.607 7.725 123.357 7.75 123.141 7.75V23.6ZM148.711 25.225C148.244 25.225 147.894 25.1333 147.661 24.95C147.444 24.7667 147.336 24.4667 147.336 24.05V23.2C146.786 23.75 146.094 24.2333 145.261 24.65C144.444 25.0667 143.619 25.275 142.786 25.275C141.236 25.275 140.136 24.8583 139.486 24.025C138.836 23.1917 138.511 21.8167 138.511 19.9V12.65L137.111 12.25V11.15L140.611 10.825H140.636L141.111 11.125V19.7C141.111 20.6667 141.178 21.425 141.311 21.975C141.461 22.5083 141.711 22.9083 142.061 23.175C142.428 23.425 142.953 23.55 143.636 23.55C144.303 23.55 144.928 23.4083 145.511 23.125C146.094 22.8417 146.603 22.5083 147.036 22.125V12.65L145.236 12.25V11.15L149.036 10.825H149.061L149.636 11.125V23.725H151.136L151.111 24.85C150.644 24.9667 150.236 25.0583 149.886 25.125C149.553 25.1917 149.161 25.225 148.711 25.225ZM143.936 30.1C143.486 30.1 143.119 29.9417 142.836 29.625C142.569 29.325 142.436 28.9417 142.436 28.475C142.436 27.9417 142.586 27.4917 142.886 27.125C143.203 26.7583 143.636 26.575 144.186 26.575C144.686 26.575 145.078 26.7333 145.361 27.05C145.644 27.3667 145.786 27.75 145.786 28.2C145.786 28.75 145.628 29.2 145.311 29.55C144.994 29.9167 144.544 30.1 143.961 30.1H143.936ZM152.832 18.15C152.832 16.7667 153.099 15.5167 153.632 14.4C154.182 13.2833 154.982 12.4 156.032 11.75C157.099 11.0833 158.374 10.75 159.857 10.75C160.574 10.75 161.19 10.8167 161.707 10.95C162.224 11.0833 162.84 11.2667 163.557 11.5L163.457 15.35H161.832L161.282 12.8C161.182 12.3333 160.549 12.1 159.382 12.1C158.215 12.1 157.29 12.575 156.607 13.525C155.94 14.4583 155.607 15.7917 155.607 17.525C155.607 19.4917 155.982 20.9917 156.732 22.025C157.499 23.0417 158.49 23.55 159.707 23.55C160.407 23.55 161.065 23.4417 161.682 23.225C162.315 23.0083 162.857 22.75 163.307 22.45L163.782 23.45C163.332 23.9167 162.665 24.3417 161.782 24.725C160.915 25.0917 160.032 25.275 159.132 25.275C157.765 25.275 156.607 24.9667 155.657 24.35C154.724 23.7333 154.015 22.8917 153.532 21.825C153.065 20.7417 152.832 19.5167 152.832 18.15ZM178.007 7.75L173.707 7.9L172.832 13.125H171.182L171.607 6.425H187.182L187.482 13.125H185.907L185.082 7.9L180.757 7.75V23.525L184.307 23.775V25H174.757V23.775L178.007 23.525V7.75ZM190.541 6.35L188.441 6.075V5L192.516 4.525H192.566L193.116 4.9V10.7L193.016 12.825C193.55 12.3417 194.283 11.8833 195.216 11.45C196.15 11.0167 197.091 10.8 198.041 10.8C199.091 10.8 199.908 11 200.491 11.4C201.075 11.8 201.483 12.4167 201.716 13.25C201.95 14.0667 202.066 15.175 202.066 16.575V23.55L203.816 23.775V25H197.841V23.775L199.466 23.55V16.55C199.466 15.5667 199.4 14.8 199.266 14.25C199.133 13.6833 198.883 13.2667 198.516 13C198.15 12.7167 197.6 12.575 196.866 12.575C196.266 12.575 195.625 12.725 194.941 13.025C194.258 13.325 193.658 13.675 193.141 14.075V23.55L194.866 23.775V25H189.041V23.775L190.541 23.575V6.35ZM205.671 21.25C205.671 19.6833 206.454 18.5333 208.021 17.8C209.588 17.05 211.571 16.65 213.971 16.6V15.9C213.971 15.1167 213.888 14.5 213.721 14.05C213.554 13.6 213.263 13.275 212.846 13.075C212.446 12.8583 211.871 12.75 211.121 12.75C210.271 12.75 209.504 12.875 208.821 13.125C208.154 13.3583 207.488 13.65 206.821 14L206.196 12.7C206.413 12.5167 206.813 12.275 207.396 11.975C207.979 11.675 208.654 11.4083 209.421 11.175C210.188 10.9417 210.954 10.825 211.721 10.825C212.904 10.825 213.838 10.9917 214.521 11.325C215.221 11.6417 215.721 12.1583 216.021 12.875C216.321 13.5917 216.471 14.55 216.471 15.75V23.775H217.946V24.875C217.613 24.9583 217.188 25.0417 216.671 25.125C216.171 25.2083 215.729 25.25 215.346 25.25C214.879 25.25 214.563 25.175 214.396 25.025C214.229 24.8917 214.146 24.5833 214.146 24.1V23.275C213.646 23.775 213.029 24.2333 212.296 24.65C211.579 25.0667 210.763 25.275 209.846 25.275C208.646 25.275 207.646 24.9333 206.846 24.25C206.063 23.55 205.671 22.55 205.671 21.25ZM210.921 23.575C211.354 23.575 211.854 23.4417 212.421 23.175C212.988 22.9083 213.504 22.5917 213.971 22.225V17.925C212.154 17.925 210.779 18.2083 209.846 18.775C208.929 19.325 208.471 20.05 208.471 20.95C208.471 21.85 208.688 22.5167 209.121 22.95C209.571 23.3667 210.171 23.575 210.921 23.575ZM221.185 13.05L219.385 12.6V11.25L222.96 10.8H223.035L223.56 11.25V12.3L223.535 12.9C224.135 12.3667 224.926 11.8833 225.91 11.45C226.893 11.0167 227.835 10.8 228.735 10.8C229.785 10.8 230.593 11 231.16 11.4C231.743 11.8 232.151 12.4167 232.385 13.25C232.618 14.0667 232.735 15.175 232.735 16.575V23.575L234.485 23.75V25H228.56V23.775L230.11 23.575V16.55C230.11 15.5667 230.043 14.8 229.91 14.25C229.776 13.6833 229.526 13.2667 229.16 13C228.793 12.7167 228.26 12.575 227.56 12.575C226.96 12.575 226.318 12.725 225.635 13.025C224.951 13.325 224.343 13.675 223.81 14.075V23.55L225.51 23.775V25H219.61V23.775L221.185 23.55V13.05ZM237.636 6.35L235.536 6.075V5L239.611 4.525H239.661L240.211 4.9V10.7L240.111 12.825C240.644 12.3417 241.378 11.8833 242.311 11.45C243.244 11.0167 244.186 10.8 245.136 10.8C246.186 10.8 247.003 11 247.586 11.4C248.169 11.8 248.578 12.4167 248.811 13.25C249.044 14.0667 249.161 15.175 249.161 16.575V23.55L250.911 23.775V25H244.936V23.775L246.561 23.55V16.55C246.561 15.5667 246.494 14.8 246.361 14.25C246.228 13.6833 245.978 13.2667 245.611 13C245.244 12.7167 244.694 12.575 243.961 12.575C243.361 12.575 242.719 12.725 242.036 13.025C241.353 13.325 240.753 13.675 240.236 14.075V23.55L241.961 23.775V25H236.136V23.775L237.636 23.575V6.35ZM255.941 21.25C256.507 21.25 256.974 21.525 257.341 22.075C257.707 22.6083 257.891 23.3417 257.891 24.275C257.891 25.225 257.741 26.1417 257.441 27.025C257.141 27.9083 256.766 28.6583 256.316 29.275C255.866 29.9083 255.424 30.35 254.991 30.6H254.966L254.116 30V29.725C254.449 29.4583 254.782 28.875 255.116 27.975C255.466 27.0917 255.641 26.25 255.641 25.45C255.641 25.2 255.591 25 255.491 24.85C255.407 24.6833 255.266 24.4917 255.066 24.275C254.832 24.025 254.657 23.7917 254.541 23.575C254.424 23.3583 254.366 23.0667 254.366 22.7C254.366 22.2667 254.499 21.9167 254.766 21.65C255.049 21.3833 255.399 21.25 255.816 21.25H255.941ZM269.172 7.975L267.122 7.675V6.425H270.497C271.064 6.425 271.781 6.39167 272.647 6.325C273.447 6.25833 274.039 6.225 274.422 6.225C276.722 6.225 278.364 6.58333 279.347 7.3C280.347 8.01667 280.847 9.06667 280.847 10.45C280.847 11.6333 280.506 12.65 279.822 13.5C279.139 14.35 278.206 14.8833 277.022 15.1C278.622 15.0667 279.881 15.4417 280.797 16.225C281.714 17.0083 282.172 18.075 282.172 19.425C282.172 21.1083 281.572 22.4833 280.372 23.55C279.189 24.6167 277.222 25.15 274.472 25.15C273.872 25.15 273.297 25.125 272.747 25.075C271.447 25.025 270.672 25 270.422 25H267.097V23.775L269.172 23.525V7.975ZM271.822 14.625C272.056 14.6417 272.531 14.65 273.247 14.65H274.622C275.789 14.65 276.672 14.325 277.272 13.675C277.872 13.025 278.172 12.1 278.172 10.9C278.172 9.73333 277.872 8.88333 277.272 8.35C276.672 7.8 275.647 7.525 274.197 7.525C273.597 7.525 272.981 7.55833 272.347 7.625L271.822 7.675V14.625ZM271.822 23.6C272.206 23.7333 273.072 23.8 274.422 23.8C276.106 23.8 277.322 23.4583 278.072 22.775C278.839 22.075 279.222 21.075 279.222 19.775C279.222 18.4917 278.889 17.5583 278.222 16.975C277.572 16.3917 276.514 16.1 275.047 16.1C273.347 16.1 272.272 16.1167 271.822 16.15V23.6ZM286.137 13.05L284.237 12.6V11.275L288.112 10.8H288.162L288.737 11.25V23.575L290.737 23.775V25H284.112V23.775L286.137 23.55V13.05ZM287.962 8.675C287.628 8.54167 287.112 8.20833 286.412 7.675C285.712 7.14167 285.037 6.56667 284.387 5.95C283.737 5.33333 283.303 4.84167 283.087 4.475L284.887 2.9L288.912 7.85L287.987 8.675H287.962ZM294.012 13.05L292.212 12.6V11.25L295.787 10.8H295.862L296.387 11.25V12.3L296.362 12.9C296.962 12.3667 297.753 11.8833 298.737 11.45C299.72 11.0167 300.662 10.8 301.562 10.8C302.612 10.8 303.42 11 303.987 11.4C304.57 11.8 304.978 12.4167 305.212 13.25C305.445 14.0667 305.562 15.175 305.562 16.575V23.575L307.312 23.75V25H301.387V23.775L302.937 23.575V16.55C302.937 15.5667 302.87 14.8 302.737 14.25C302.603 13.6833 302.353 13.2667 301.987 13C301.62 12.7167 301.087 12.575 300.387 12.575C299.787 12.575 299.145 12.725 298.462 13.025C297.778 13.325 297.17 13.675 296.637 14.075V23.55L298.337 23.775V25H292.437V23.775L294.012 23.55V13.05ZM310.463 6.35L308.363 6.075V5L312.438 4.525H312.488L313.038 4.9V10.7L312.938 12.825C313.472 12.3417 314.205 11.8833 315.138 11.45C316.072 11.0167 317.013 10.8 317.963 10.8C319.013 10.8 319.83 11 320.413 11.4C320.997 11.8 321.405 12.4167 321.638 13.25C321.872 14.0667 321.988 15.175 321.988 16.575V23.55L323.738 23.775V25H317.763V23.775L319.388 23.55V16.55C319.388 15.5667 319.322 14.8 319.188 14.25C319.055 13.6833 318.805 13.2667 318.438 13C318.072 12.7167 317.522 12.575 316.788 12.575C316.188 12.575 315.547 12.725 314.863 13.025C314.18 13.325 313.58 13.675 313.063 14.075V23.55L314.788 23.775V25H308.963V23.775L310.463 23.575V6.35ZM337.65 7.75L333.35 7.9L332.475 13.125H330.825L331.25 6.425H346.825L347.125 13.125H345.55L344.725 7.9L340.4 7.75V23.525L343.95 23.775V25H334.4V23.775L337.65 23.525V7.75ZM350.185 6.35L348.085 6.075V5L352.16 4.525H352.21L352.76 4.9V10.7L352.66 12.825C353.193 12.3417 353.927 11.8833 354.86 11.45C355.793 11.0167 356.735 10.8 357.685 10.8C358.735 10.8 359.552 11 360.135 11.4C360.718 11.8 361.127 12.4167 361.36 13.25C361.593 14.0667 361.71 15.175 361.71 16.575V23.55L363.46 23.775V25H357.485V23.775L359.11 23.55V16.55C359.11 15.5667 359.043 14.8 358.91 14.25C358.777 13.6833 358.527 13.2667 358.16 13C357.793 12.7167 357.243 12.575 356.51 12.575C355.91 12.575 355.268 12.725 354.585 13.025C353.902 13.325 353.302 13.675 352.785 14.075V23.55L354.51 23.775V25H348.685V23.775L350.185 23.575V6.35ZM376.689 25.225C376.223 25.225 375.873 25.1333 375.639 24.95C375.423 24.7667 375.314 24.4667 375.314 24.05V23.2C374.764 23.75 374.073 24.2333 373.239 24.65C372.423 25.0667 371.598 25.275 370.764 25.275C369.214 25.275 368.114 24.8583 367.464 24.025C366.814 23.1917 366.489 21.8167 366.489 19.9V12.65L365.089 12.25V11.15L368.589 10.825H368.614L369.089 11.125V19.7C369.089 20.6667 369.156 21.425 369.289 21.975C369.439 22.5083 369.689 22.9083 370.039 23.175C370.406 23.425 370.931 23.55 371.614 23.55C372.281 23.55 372.906 23.4083 373.489 23.125C374.073 22.8417 374.581 22.5083 375.014 22.125V12.65L373.214 12.25V11.15L377.014 10.825H377.039L377.614 11.125V23.725H379.114L379.089 24.85C378.623 24.9667 378.214 25.0583 377.864 25.125C377.531 25.1917 377.139 25.225 376.689 25.225ZM381.11 21.25C381.11 19.6833 381.894 18.5333 383.46 17.8C385.027 17.05 387.01 16.65 389.41 16.6V15.9C389.41 15.1167 389.327 14.5 389.16 14.05C388.994 13.6 388.702 13.275 388.285 13.075C387.885 12.8583 387.31 12.75 386.56 12.75C385.71 12.75 384.944 12.875 384.26 13.125C383.594 13.3583 382.927 13.65 382.26 14L381.635 12.7C381.852 12.5167 382.252 12.275 382.835 11.975C383.419 11.675 384.094 11.4083 384.86 11.175C385.627 10.9417 386.394 10.825 387.16 10.825C388.344 10.825 389.277 10.9917 389.96 11.325C390.66 11.6417 391.16 12.1583 391.46 12.875C391.76 13.5917 391.91 14.55 391.91 15.75V23.775H393.385V24.875C393.052 24.9583 392.627 25.0417 392.11 25.125C391.61 25.2083 391.169 25.25 390.785 25.25C390.319 25.25 390.002 25.175 389.835 25.025C389.669 24.8917 389.585 24.5833 389.585 24.1V23.275C389.085 23.775 388.469 24.2333 387.735 24.65C387.019 25.0667 386.202 25.275 385.285 25.275C384.085 25.275 383.085 24.9333 382.285 24.25C381.502 23.55 381.11 22.55 381.11 21.25ZM386.36 23.575C386.794 23.575 387.294 23.4417 387.86 23.175C388.427 22.9083 388.944 22.5917 389.41 22.225V17.925C387.594 17.925 386.219 18.2083 385.285 18.775C384.369 19.325 383.91 20.05 383.91 20.95C383.91 21.85 384.127 22.5167 384.56 22.95C385.01 23.3667 385.61 23.575 386.36 23.575ZM386.835 30.1C386.385 30.1 386.019 29.9417 385.735 29.625C385.469 29.325 385.335 28.9417 385.335 28.475C385.335 27.9417 385.485 27.4917 385.785 27.125C386.102 26.7583 386.535 26.575 387.085 26.575C387.585 26.575 387.977 26.7333 388.26 27.05C388.544 27.3667 388.685 27.75 388.685 28.2C388.685 28.75 388.527 29.2 388.21 29.55C387.894 29.9167 387.444 30.1 386.86 30.1H386.835ZM387.81 3.5L391.31 8.375L390.31 9.075L386.81 5.475L383.185 9.075L382.235 8.4L385.81 3.5H387.81ZM396.624 13.05L394.824 12.6V11.25L398.399 10.8H398.474L398.999 11.25V12.3L398.974 12.9C399.574 12.3667 400.366 11.8833 401.349 11.45C402.332 11.0167 403.274 10.8 404.174 10.8C405.224 10.8 406.032 11 406.599 11.4C407.182 11.8 407.591 12.4167 407.824 13.25C408.057 14.0667 408.174 15.175 408.174 16.575V23.575L409.924 23.75V25H403.999V23.775L405.549 23.575V16.55C405.549 15.5667 405.482 14.8 405.349 14.25C405.216 13.6833 404.966 13.2667 404.599 13C404.232 12.7167 403.699 12.575 402.999 12.575C402.399 12.575 401.757 12.725 401.074 13.025C400.391 13.325 399.782 13.675 399.249 14.075V23.55L400.949 23.775V25H395.049V23.775L396.624 23.55V13.05Z" fill="black"/>
</svg>
