<svg width="83" height="29" viewBox="0 0 83 29" fill="none" xmlns="http://www.w3.org/2000/svg">
<path d="M2.275 5.975L0.3 5.675V4.425H7.1V5.675L4.95 5.975V12.7H13.75V5.975L11.725 5.675V4.425H18.425V5.675L16.45 5.975V21.525L18.425 21.775V23H11.7V21.775L13.75 21.525V14.25H4.95V21.525L7.125 21.775V23H0.25V21.775L2.275 21.525V5.975ZM20.8281 19.25C20.8281 17.6833 21.6115 16.5333 23.1781 15.8C24.7448 15.05 26.7281 14.65 29.1281 14.6V13.9C29.1281 13.1167 29.0448 12.5 28.8781 12.05C28.7115 11.6 28.4198 11.275 28.0031 11.075C27.6031 10.8583 27.0281 10.75 26.2781 10.75C25.4281 10.75 24.6615 10.875 23.9781 11.125C23.3115 11.3583 22.6448 11.65 21.9781 12L21.3531 10.7C21.5698 10.5167 21.9698 10.275 22.5531 9.975C23.1365 9.675 23.8115 9.40833 24.5781 9.175C25.3448 8.94167 26.1115 8.825 26.8781 8.825C28.0615 8.825 28.9948 8.99167 29.6781 9.325C30.3781 9.64167 30.8781 10.1583 31.1781 10.875C31.4781 11.5917 31.6281 12.55 31.6281 13.75V21.775H33.1031V22.875C32.7698 22.9583 32.3448 23.0417 31.8281 23.125C31.3281 23.2083 30.8865 23.25 30.5031 23.25C30.0365 23.25 29.7198 23.175 29.5531 23.025C29.3865 22.8917 29.3031 22.5833 29.3031 22.1V21.275C28.8031 21.775 28.1865 22.2333 27.4531 22.65C26.7365 23.0667 25.9198 23.275 25.0031 23.275C23.8031 23.275 22.8031 22.9333 22.0031 22.25C21.2198 21.55 20.8281 20.55 20.8281 19.25ZM26.0781 21.575C26.5115 21.575 27.0115 21.4417 27.5781 21.175C28.1448 20.9083 28.6615 20.5917 29.1281 20.225V15.925C27.3115 15.925 25.9365 16.2083 25.0031 16.775C24.0865 17.325 23.6281 18.05 23.6281 18.95C23.6281 19.85 23.8448 20.5167 24.2781 20.95C24.7281 21.3667 25.3281 21.575 26.0781 21.575ZM27.2531 6.675C26.9198 6.54167 26.4031 6.20833 25.7031 5.675C25.0031 5.14167 24.3281 4.56667 23.6781 3.95C23.0281 3.33333 22.5948 2.84167 22.3781 2.475L24.1781 0.899998L28.2031 5.85L27.2781 6.675H27.2531ZM42.8994 5.975L40.8994 5.675V4.425H45.5494L53.8744 16.625L55.2744 19.275V5.975L53.0994 5.675V4.425H58.9994V5.675L56.9994 5.975V23H55.0244L46.5244 10.525L44.5994 7.225V21.525L46.9744 21.775V23H40.8994V21.775L42.8994 21.5V5.975ZM60.7451 16.025C60.7451 14.525 61.0535 13.225 61.6701 12.125C62.2868 11.025 63.0951 10.1917 64.0951 9.625C65.1118 9.04167 66.1951 8.75 67.3451 8.75C69.4451 8.75 71.0201 9.41667 72.0701 10.75C73.1368 12.0833 73.6701 13.8333 73.6701 16C73.6701 17.5167 73.3618 18.825 72.7451 19.925C72.1285 21.025 71.3118 21.8583 70.2951 22.425C69.2951 22.9917 68.2201 23.275 67.0701 23.275C64.9701 23.275 63.3868 22.6083 62.3201 21.275C61.2701 19.9417 60.7451 18.1917 60.7451 16.025ZM67.2201 21.85C68.3701 21.85 69.2535 21.375 69.8701 20.425C70.4868 19.475 70.7951 18.0667 70.7951 16.2C70.7951 14.35 70.5118 12.8833 69.9451 11.8C69.3785 10.7167 68.4701 10.175 67.2201 10.175C66.0701 10.175 65.1785 10.65 64.5451 11.6C63.9285 12.55 63.6201 13.9583 63.6201 15.825C63.6201 17.675 63.9118 19.1417 64.4951 20.225C65.0785 21.3083 65.9868 21.85 67.2201 21.85ZM67.0451 28.1C66.5951 28.1 66.2285 27.9417 65.9451 27.625C65.6785 27.325 65.5451 26.9417 65.5451 26.475C65.5451 25.9417 65.6951 25.4917 65.9951 25.125C66.3118 24.7583 66.7451 24.575 67.2951 24.575C67.7951 24.575 68.1868 24.7333 68.4701 25.05C68.7535 25.3667 68.8951 25.75 68.8951 26.2C68.8951 26.75 68.7368 27.2 68.4201 27.55C68.1035 27.9167 67.6535 28.1 67.0701 28.1H67.0451ZM68.2451 1.5L71.7451 6.375L70.7451 7.075L67.2451 3.475L63.6201 7.075L62.6701 6.4L66.2451 1.5H68.2451ZM78.9051 6.625C78.3717 6.625 77.9717 6.475 77.7051 6.175C77.4384 5.875 77.3051 5.49167 77.3051 5.025C77.3051 4.49167 77.4634 4.05 77.7801 3.7C78.1134 3.35 78.5634 3.175 79.1301 3.175C79.6967 3.175 80.1134 3.325 80.3801 3.625C80.6467 3.925 80.7801 4.30833 80.7801 4.775C80.7801 5.34167 80.6134 5.79167 80.2801 6.125C79.9634 6.45833 79.5134 6.625 78.9301 6.625H78.9051ZM77.9051 11.05L76.0051 10.6V9.275L79.8801 8.8H79.9301L80.5051 9.25V21.575L82.5051 21.775V23H75.8801V21.775L77.9051 21.55V11.05Z" fill="#FFFACD"/>
</svg>
