<svg width="738" height="70" viewBox="0 0 738 70" fill="none" xmlns="http://www.w3.org/2000/svg">
<line x1="0.908543" y1="69.2988" x2="20.2988" y2="44.0915" stroke="#442526" stroke-linecap="round"/>
<path d="M21 44.0071L428 44" stroke="#442526" stroke-linecap="round"/>
<path d="M347.575 14.725L342.375 7L340.525 6.675V5.425H347.975V6.675L345.6 7L349.5 13.325L353.4 6.975L351.2 6.675V5.425H357.35V6.675L355.35 7L350.275 14.25L355.85 22.525L357.75 22.775V24H350.325V22.775L352.65 22.525L348.4 15.7L344.325 22.525L346.825 22.775V24H340.175V22.775L342.3 22.525L347.575 14.725ZM358.923 20.25C358.923 18.6833 359.706 17.5333 361.273 16.8C362.84 16.05 364.823 15.65 367.223 15.6V14.9C367.223 14.1167 367.14 13.5 366.973 13.05C366.806 12.6 366.515 12.275 366.098 12.075C365.698 11.8583 365.123 11.75 364.373 11.75C363.523 11.75 362.756 11.875 362.073 12.125C361.406 12.3583 360.74 12.65 360.073 13L359.448 11.7C359.665 11.5167 360.065 11.275 360.648 10.975C361.231 10.675 361.906 10.4083 362.673 10.175C363.44 9.94167 364.206 9.825 364.973 9.825C366.156 9.825 367.09 9.99167 367.773 10.325C368.473 10.6417 368.973 11.1583 369.273 11.875C369.573 12.5917 369.723 13.55 369.723 14.75V22.775H371.198V23.875C370.865 23.9583 370.44 24.0417 369.923 24.125C369.423 24.2083 368.981 24.25 368.598 24.25C368.131 24.25 367.815 24.175 367.648 24.025C367.481 23.8917 367.398 23.5833 367.398 23.1V22.275C366.898 22.775 366.281 23.2333 365.548 23.65C364.831 24.0667 364.015 24.275 363.098 24.275C361.898 24.275 360.898 23.9333 360.098 23.25C359.315 22.55 358.923 21.55 358.923 20.25ZM364.173 22.575C364.606 22.575 365.106 22.4417 365.673 22.175C366.24 21.9083 366.756 21.5917 367.223 21.225V16.925C365.406 16.925 364.031 17.2083 363.098 17.775C362.181 18.325 361.723 19.05 361.723 19.95C361.723 20.85 361.94 21.5167 362.373 21.95C362.823 22.3667 363.423 22.575 364.173 22.575ZM359.823 6.5C359.99 5.76667 360.331 5.15 360.848 4.65C361.381 4.13333 362.048 3.875 362.848 3.875C363.348 3.875 363.765 3.975 364.098 4.175C364.448 4.375 364.831 4.66667 365.248 5.05C365.565 5.33333 365.815 5.54167 365.998 5.675C366.198 5.79167 366.415 5.85 366.648 5.85C367.098 5.85 367.44 5.69167 367.673 5.375C367.923 5.05833 368.09 4.725 368.173 4.375L369.448 5C369.265 5.76667 368.931 6.4 368.448 6.9C367.965 7.4 367.331 7.65 366.548 7.65C366.065 7.65 365.656 7.55833 365.323 7.375C365.006 7.175 364.64 6.88333 364.223 6.5C363.906 6.21667 363.64 6.00833 363.423 5.875C363.223 5.74167 362.998 5.675 362.748 5.675C362.331 5.675 362.006 5.78333 361.773 6C361.556 6.21667 361.381 6.45 361.248 6.7C361.131 6.93333 361.048 7.09167 360.998 7.175L359.823 6.5ZM392.344 24C392.061 24 391.694 23.6667 391.244 23C390.811 22.3167 390.186 21.25 389.369 19.8C389.269 19.6167 388.986 19.125 388.519 18.325C388.069 17.5083 387.644 16.8083 387.244 16.225C386.861 15.6417 386.519 15.1833 386.219 14.85L383.694 17.7V22.525L385.969 22.775V24H378.944V22.775L381.019 22.525V6.975L378.969 6.675V5.425H385.769V6.675L383.694 6.975V15.725L391.044 6.975L388.944 6.675V5.425H395.119V6.675L393.194 6.975L387.794 13.025C388.377 13.525 388.994 14.25 389.644 15.2C390.311 16.15 391.119 17.375 392.069 18.875C392.886 20.1583 393.477 21.075 393.844 21.625C394.227 22.1583 394.527 22.45 394.744 22.5L395.919 22.775V24H392.344ZM399.959 7.625C399.425 7.625 399.025 7.475 398.759 7.175C398.492 6.875 398.359 6.49167 398.359 6.025C398.359 5.49167 398.517 5.05 398.834 4.7C399.167 4.35 399.617 4.175 400.184 4.175C400.75 4.175 401.167 4.325 401.434 4.625C401.7 4.925 401.834 5.30833 401.834 5.775C401.834 6.34167 401.667 6.79167 401.334 7.125C401.017 7.45833 400.567 7.625 399.984 7.625H399.959ZM398.959 12.05L397.059 11.6V10.275L400.934 9.8H400.984L401.559 10.25V22.575L403.559 22.775V24H396.934V22.775L398.959 22.55V12.05ZM405.309 22.775L406.834 22.55V12.05L405.034 11.6V10.25L408.609 9.8L409.059 10.125L409.209 11.125L409.184 11.925C409.767 11.3917 410.559 10.9083 411.559 10.475C412.576 10.025 413.484 9.8 414.284 9.8C415.184 9.8 415.909 9.95 416.459 10.25C417.009 10.55 417.426 11.0167 417.709 11.65C418.242 11.2 418.984 10.7833 419.934 10.4C420.901 10 421.801 9.8 422.634 9.8C423.667 9.8 424.476 10 425.059 10.4C425.642 10.7833 426.051 11.3917 426.284 12.225C426.534 13.0417 426.659 14.1417 426.659 15.525V22.55L428.459 22.775V24H422.509V22.775L424.059 22.55V15.6C424.059 14.6333 423.984 13.8667 423.834 13.3C423.701 12.7167 423.434 12.2833 423.034 12C422.651 11.7167 422.092 11.575 421.359 11.575C420.809 11.575 420.226 11.7 419.609 11.95C418.992 12.1833 418.467 12.4667 418.034 12.8C418.184 13.45 418.259 14.375 418.259 15.575V22.55L420.034 22.775V24H413.984V22.775L415.634 22.55V15.55C415.634 14.55 415.567 13.775 415.434 13.225C415.317 12.675 415.084 12.2667 414.734 12C414.384 11.7167 413.851 11.575 413.134 11.575C412.534 11.575 411.892 11.725 411.209 12.025C410.542 12.325 409.959 12.675 409.459 13.075V22.55L411.134 22.775V24H405.309V22.775ZM438.295 6.975L436.27 6.675V5.425H443.445V6.675L440.97 6.975V22.525L447.42 22.3L448.895 18.1L450.42 18.325L449.545 24H436.22V22.775L438.295 22.525V6.975ZM454.939 7.625C454.406 7.625 454.006 7.475 453.739 7.175C453.473 6.875 453.339 6.49167 453.339 6.025C453.339 5.49167 453.498 5.05 453.814 4.7C454.148 4.35 454.598 4.175 455.164 4.175C455.731 4.175 456.148 4.325 456.414 4.625C456.681 4.925 456.814 5.30833 456.814 5.775C456.814 6.34167 456.648 6.79167 456.314 7.125C455.998 7.45833 455.548 7.625 454.964 7.625H454.939ZM453.939 12.05L452.039 11.6V10.275L455.914 9.8H455.964L456.539 10.25V22.575L458.539 22.775V24H451.914V22.775L453.939 22.55V12.05ZM466.464 24.275C464.448 24.275 462.906 23.6167 461.839 22.3C460.789 20.9833 460.264 19.225 460.264 17.025C460.264 15.575 460.539 14.3 461.089 13.2C461.639 12.1 462.406 11.25 463.389 10.65C464.389 10.05 465.523 9.75 466.789 9.75C468.339 9.75 469.539 10.1833 470.389 11.05C471.256 11.9 471.714 13.125 471.764 14.725C471.764 15.7417 471.706 16.5167 471.589 17.05H462.989C463.023 18.7 463.406 20.0333 464.139 21.05C464.873 22.05 465.914 22.55 467.264 22.55C467.931 22.55 468.623 22.4333 469.339 22.2C470.073 21.95 470.639 21.6583 471.039 21.325L471.514 22.425C471.031 22.925 470.314 23.3583 469.364 23.725C468.414 24.0917 467.448 24.275 466.464 24.275ZM469.014 15.725C469.064 15.375 469.089 15.0167 469.089 14.65C469.073 13.5667 468.839 12.7167 468.389 12.1C467.956 11.4667 467.264 11.15 466.314 11.15C465.348 11.15 464.573 11.5 463.989 12.2C463.423 12.9 463.098 14.075 463.014 15.725H469.014ZM467.489 2.5L470.989 7.375L469.989 8.075L466.489 4.475L462.864 8.075L461.914 7.4L465.489 2.5H467.489ZM475.413 12.05L473.613 11.6V10.25L477.188 9.8H477.263L477.788 10.25V11.3L477.763 11.9C478.363 11.3667 479.155 10.8833 480.138 10.45C481.121 10.0167 482.063 9.8 482.963 9.8C484.013 9.8 484.821 10 485.388 10.4C485.971 10.8 486.38 11.4167 486.613 12.25C486.846 13.0667 486.963 14.175 486.963 15.575V22.575L488.713 22.75V24H482.788V22.775L484.338 22.575V15.55C484.338 14.5667 484.271 13.8 484.138 13.25C484.005 12.6833 483.755 12.2667 483.388 12C483.021 11.7167 482.488 11.575 481.788 11.575C481.188 11.575 480.546 11.725 479.863 12.025C479.18 12.325 478.571 12.675 478.038 13.075V22.55L479.738 22.775V24H473.838V22.775L475.413 22.55V12.05ZM493.69 20.25C494.256 20.25 494.723 20.525 495.09 21.075C495.456 21.6083 495.64 22.3417 495.64 23.275C495.64 24.225 495.49 25.1417 495.19 26.025C494.89 26.9083 494.515 27.6583 494.065 28.275C493.615 28.9083 493.173 29.35 492.74 29.6H492.715L491.865 29V28.725C492.198 28.4583 492.531 27.875 492.865 26.975C493.215 26.0917 493.39 25.25 493.39 24.45C493.39 24.2 493.34 24 493.24 23.85C493.156 23.6833 493.015 23.4917 492.815 23.275C492.581 23.025 492.406 22.7917 492.29 22.575C492.173 22.3583 492.115 22.0667 492.115 21.7C492.115 21.2667 492.248 20.9167 492.515 20.65C492.798 20.3833 493.148 20.25 493.565 20.25H493.69ZM506.946 6.975L504.946 6.675V5.425H509.596L517.921 17.625L519.321 20.275V6.975L517.146 6.675V5.425H523.046V6.675L521.046 6.975V24H519.071L510.571 11.525L508.646 8.225V22.525L511.021 22.775V24H504.946V22.775L506.946 22.5V6.975ZM524.792 20.25C524.792 18.6833 525.575 17.5333 527.142 16.8C528.709 16.05 530.692 15.65 533.092 15.6V14.9C533.092 14.1167 533.009 13.5 532.842 13.05C532.675 12.6 532.384 12.275 531.967 12.075C531.567 11.8583 530.992 11.75 530.242 11.75C529.392 11.75 528.625 11.875 527.942 12.125C527.275 12.3583 526.609 12.65 525.942 13L525.317 11.7C525.534 11.5167 525.934 11.275 526.517 10.975C527.1 10.675 527.775 10.4083 528.542 10.175C529.309 9.94167 530.075 9.825 530.842 9.825C532.025 9.825 532.959 9.99167 533.642 10.325C534.342 10.6417 534.842 11.1583 535.142 11.875C535.442 12.5917 535.592 13.55 535.592 14.75V22.775H537.067V23.875C536.734 23.9583 536.309 24.0417 535.792 24.125C535.292 24.2083 534.85 24.25 534.467 24.25C534 24.25 533.684 24.175 533.517 24.025C533.35 23.8917 533.267 23.5833 533.267 23.1V22.275C532.767 22.775 532.15 23.2333 531.417 23.65C530.7 24.0667 529.884 24.275 528.967 24.275C527.767 24.275 526.767 23.9333 525.967 23.25C525.184 22.55 524.792 21.55 524.792 20.25ZM530.042 22.575C530.475 22.575 530.975 22.4417 531.542 22.175C532.109 21.9083 532.625 21.5917 533.092 21.225V16.925C531.275 16.925 529.9 17.2083 528.967 17.775C528.05 18.325 527.592 19.05 527.592 19.95C527.592 20.85 527.809 21.5167 528.242 21.95C528.692 22.3667 529.292 22.575 530.042 22.575ZM538.781 22.775L540.306 22.55V12.05L538.506 11.6V10.25L542.081 9.8L542.531 10.125L542.681 11.125L542.656 11.925C543.239 11.3917 544.031 10.9083 545.031 10.475C546.047 10.025 546.956 9.8 547.756 9.8C548.656 9.8 549.381 9.95 549.931 10.25C550.481 10.55 550.897 11.0167 551.181 11.65C551.714 11.2 552.456 10.7833 553.406 10.4C554.372 10 555.272 9.8 556.106 9.8C557.139 9.8 557.947 10 558.531 10.4C559.114 10.7833 559.522 11.3917 559.756 12.225C560.006 13.0417 560.131 14.1417 560.131 15.525V22.55L561.931 22.775V24H555.981V22.775L557.531 22.55V15.6C557.531 14.6333 557.456 13.8667 557.306 13.3C557.172 12.7167 556.906 12.2833 556.506 12C556.122 11.7167 555.564 11.575 554.831 11.575C554.281 11.575 553.697 11.7 553.081 11.95C552.464 12.1833 551.939 12.4667 551.506 12.8C551.656 13.45 551.731 14.375 551.731 15.575V22.55L553.506 22.775V24H547.456V22.775L549.106 22.55V15.55C549.106 14.55 549.039 13.775 548.906 13.225C548.789 12.675 548.556 12.2667 548.206 12C547.856 11.7167 547.322 11.575 546.606 11.575C546.006 11.575 545.364 11.725 544.681 12.025C544.014 12.325 543.431 12.675 542.931 13.075V22.55L544.606 22.775V24H538.781V22.775ZM571.716 6.975L569.766 6.675V5.425H573.041C573.558 5.425 574.3 5.39167 575.266 5.325C576.233 5.25833 576.958 5.225 577.441 5.225C580.541 5.225 582.841 6.00833 584.341 7.575C585.858 9.125 586.616 11.3083 586.616 14.125C586.616 16.0917 586.225 17.8417 585.441 19.375C584.675 20.8917 583.591 22.075 582.191 22.925C580.791 23.775 579.183 24.2 577.366 24.2C576.966 24.2 576.283 24.1667 575.316 24.1C574.316 24.0333 573.566 24 573.066 24H569.641V22.775L571.716 22.525V14.975H569.841V13.675H571.716V6.975ZM578.741 14.975H574.366V22.6C574.95 22.7333 575.7 22.8 576.616 22.8H577.366C578.616 22.7833 579.716 22.4667 580.666 21.85C581.633 21.2333 582.383 20.3167 582.916 19.1C583.45 17.8667 583.716 16.375 583.716 14.625C583.716 11.9917 583.141 9.99167 581.991 8.625C580.858 7.25833 579.141 6.575 576.841 6.575C576.358 6.575 575.783 6.60833 575.116 6.675C574.833 6.725 574.583 6.75 574.366 6.75V13.675H578.741V14.975ZM588.562 20.25C588.562 18.6833 589.345 17.5333 590.912 16.8C592.478 16.05 594.462 15.65 596.862 15.6V14.9C596.862 14.1167 596.778 13.5 596.612 13.05C596.445 12.6 596.153 12.275 595.737 12.075C595.337 11.8583 594.762 11.75 594.012 11.75C593.162 11.75 592.395 11.875 591.712 12.125C591.045 12.3583 590.378 12.65 589.712 13L589.087 11.7C589.303 11.5167 589.703 11.275 590.287 10.975C590.87 10.675 591.545 10.4083 592.312 10.175C593.078 9.94167 593.845 9.825 594.612 9.825C595.795 9.825 596.728 9.99167 597.412 10.325C598.112 10.6417 598.612 11.1583 598.912 11.875C599.212 12.5917 599.362 13.55 599.362 14.75V22.775H600.837V23.875C600.503 23.9583 600.078 24.0417 599.562 24.125C599.062 24.2083 598.62 24.25 598.237 24.25C597.77 24.25 597.453 24.175 597.287 24.025C597.12 23.8917 597.037 23.5833 597.037 23.1V22.275C596.537 22.775 595.92 23.2333 595.187 23.65C594.47 24.0667 593.653 24.275 592.737 24.275C591.537 24.275 590.537 23.9333 589.737 23.25C588.953 22.55 588.562 21.55 588.562 20.25ZM593.812 22.575C594.245 22.575 594.745 22.4417 595.312 22.175C595.878 21.9083 596.395 21.5917 596.862 21.225V16.925C595.045 16.925 593.67 17.2083 592.737 17.775C591.82 18.325 591.362 19.05 591.362 19.95C591.362 20.85 591.578 21.5167 592.012 21.95C592.462 22.3667 593.062 22.575 593.812 22.575ZM594.987 7.675C594.653 7.54167 594.137 7.20833 593.437 6.675C592.737 6.14167 592.062 5.56667 591.412 4.95C590.762 4.33333 590.328 3.84167 590.112 3.475L591.912 1.9L595.937 6.85L595.012 7.675H594.987ZM604.075 12.05L602.275 11.6V10.25L605.85 9.8H605.925L606.45 10.25V11.3L606.425 11.9C607.025 11.3667 607.817 10.8833 608.8 10.45C609.784 10.0167 610.725 9.8 611.625 9.8C612.675 9.8 613.484 10 614.05 10.4C614.634 10.8 615.042 11.4167 615.275 12.25C615.509 13.0667 615.625 14.175 615.625 15.575V22.575L617.375 22.75V24H611.45V22.775L613 22.575V15.55C613 14.5667 612.934 13.8 612.8 13.25C612.667 12.6833 612.417 12.2667 612.05 12C611.684 11.7167 611.15 11.575 610.45 11.575C609.85 11.575 609.209 11.725 608.525 12.025C607.842 12.325 607.234 12.675 606.7 13.075V22.55L608.4 22.775V24H602.5V22.775L604.075 22.55V12.05ZM622.352 20.25C622.918 20.25 623.385 20.525 623.752 21.075C624.118 21.6083 624.302 22.3417 624.302 23.275C624.302 24.225 624.152 25.1417 623.852 26.025C623.552 26.9083 623.177 27.6583 622.727 28.275C622.277 28.9083 621.835 29.35 621.402 29.6H621.377L620.527 29V28.725C620.86 28.4583 621.193 27.875 621.527 26.975C621.877 26.0917 622.052 25.25 622.052 24.45C622.052 24.2 622.002 24 621.902 23.85C621.818 23.6833 621.677 23.4917 621.477 23.275C621.243 23.025 621.068 22.7917 620.952 22.575C620.835 22.3583 620.777 22.0667 620.777 21.7C620.777 21.2667 620.91 20.9167 621.177 20.65C621.46 20.3833 621.81 20.25 622.227 20.25H622.352ZM635.608 6.975L633.608 6.675V5.425H638.258L646.583 17.625L647.983 20.275V6.975L645.808 6.675V5.425H651.708V6.675L649.708 6.975V24H647.733L639.233 11.525L637.308 8.225V22.525L639.683 22.775V24H633.608V22.775L635.608 22.5V6.975ZM659.429 30.75C657.296 30.75 655.746 30.4083 654.779 29.725C653.829 29.0583 653.354 28.1333 653.354 26.95C653.354 26.2167 653.579 25.5417 654.029 24.925C654.496 24.3083 655.046 23.8417 655.679 23.525C654.912 23.0917 654.529 22.3917 654.529 21.425C654.529 20.825 654.704 20.2583 655.054 19.725C655.404 19.1917 655.862 18.7833 656.429 18.5C655.596 18.1333 654.954 17.6083 654.504 16.925C654.071 16.2417 653.854 15.4333 653.854 14.5C653.854 13.5333 654.121 12.6917 654.654 11.975C655.204 11.2583 655.921 10.7083 656.804 10.325C657.704 9.94167 658.654 9.75 659.654 9.75C661.337 9.75 662.654 10.1 663.604 10.8C663.854 10.55 664.237 10.3083 664.754 10.075C665.271 9.84167 665.821 9.725 666.404 9.725H667.254V11.925H664.504C664.904 12.5417 665.104 13.2583 665.104 14.075C665.104 15.0583 664.854 15.9333 664.354 16.7C663.871 17.45 663.187 18.0333 662.304 18.45C661.437 18.8667 660.454 19.075 659.354 19.075C658.637 19.075 657.996 19 657.429 18.85C657.196 19.0833 657.004 19.3417 656.854 19.625C656.704 19.9083 656.629 20.1833 656.629 20.45C656.629 21.05 656.829 21.4667 657.229 21.7C657.629 21.9167 658.346 22.025 659.379 22.025H662.204C663.821 22.025 665.021 22.3333 665.804 22.95C666.587 23.5667 666.979 24.4417 666.979 25.575C666.979 26.525 666.637 27.3917 665.954 28.175C665.271 28.975 664.346 29.6 663.179 30.05C662.029 30.5167 660.779 30.75 659.429 30.75ZM659.604 17.7C661.504 17.7 662.454 16.575 662.454 14.325C662.454 13.2083 662.204 12.3917 661.704 11.875C661.221 11.3417 660.487 11.075 659.504 11.075C658.587 11.075 657.862 11.3333 657.329 11.85C656.796 12.35 656.529 13.1583 656.529 14.275C656.529 15.325 656.779 16.1583 657.279 16.775C657.796 17.3917 658.571 17.7 659.604 17.7ZM659.654 29.3C660.471 29.3 661.237 29.175 661.954 28.925C662.687 28.6917 663.279 28.3333 663.729 27.85C664.179 27.3833 664.404 26.8333 664.404 26.2C664.404 25.45 664.204 24.9 663.804 24.55C663.404 24.2167 662.629 24.05 661.479 24.05H658.529C657.862 24.05 657.337 24.0083 656.954 23.925C656.271 24.675 655.929 25.5167 655.929 26.45C655.929 27.3833 656.212 28.0917 656.779 28.575C657.346 29.0583 658.304 29.3 659.654 29.3ZM669.99 5.35L667.89 5.075V4L671.965 3.525H672.015L672.565 3.9V9.7L672.465 11.825C672.998 11.3417 673.731 10.8833 674.665 10.45C675.598 10.0167 676.54 9.8 677.49 9.8C678.54 9.8 679.356 10 679.94 10.4C680.523 10.8 680.931 11.4167 681.165 12.25C681.398 13.0667 681.515 14.175 681.515 15.575V22.55L683.265 22.775V24H677.29V22.775L678.915 22.55V15.55C678.915 14.5667 678.848 13.8 678.715 13.25C678.581 12.6833 678.331 12.2667 677.965 12C677.598 11.7167 677.048 11.575 676.315 11.575C675.715 11.575 675.073 11.725 674.39 12.025C673.706 12.325 673.106 12.675 672.59 13.075V22.55L674.315 22.775V24H668.49V22.775L669.99 22.575V5.35ZM691.269 24.275C689.252 24.275 687.711 23.6167 686.644 22.3C685.594 20.9833 685.069 19.225 685.069 17.025C685.069 15.575 685.344 14.3 685.894 13.2C686.444 12.1 687.211 11.25 688.194 10.65C689.194 10.05 690.327 9.75 691.594 9.75C693.144 9.75 694.344 10.1833 695.194 11.05C696.061 11.9 696.519 13.125 696.569 14.725C696.569 15.7417 696.511 16.5167 696.394 17.05H687.794C687.827 18.7 688.211 20.0333 688.944 21.05C689.677 22.05 690.719 22.55 692.069 22.55C692.736 22.55 693.427 22.4333 694.144 22.2C694.877 21.95 695.444 21.6583 695.844 21.325L696.319 22.425C695.836 22.925 695.119 23.3583 694.169 23.725C693.219 24.0917 692.252 24.275 691.269 24.275ZM693.819 15.725C693.869 15.375 693.894 15.0167 693.894 14.65C693.877 13.5667 693.644 12.7167 693.194 12.1C692.761 11.4667 692.069 11.15 691.119 11.15C690.152 11.15 689.377 11.5 688.794 12.2C688.227 12.9 687.902 14.075 687.819 15.725H693.819ZM690.619 29.1C690.169 29.1 689.802 28.9417 689.519 28.625C689.252 28.325 689.119 27.9417 689.119 27.475C689.119 26.9417 689.269 26.4917 689.569 26.125C689.886 25.7583 690.319 25.575 690.869 25.575C691.369 25.575 691.761 25.7333 692.044 26.05C692.327 26.3667 692.469 26.75 692.469 27.2C692.469 27.75 692.311 28.2 691.994 28.55C691.677 28.9167 691.227 29.1 690.644 29.1H690.619ZM692.294 2.5L695.794 7.375L694.794 8.075L691.294 4.475L687.669 8.075L686.719 7.4L690.294 2.5H692.294ZM710.775 5.275H713.525L719.6 22.525L721.15 22.775V24H714.55V22.775L716.625 22.525L715.45 18.825H708.15L706.975 22.525L709.125 22.775V24H703.2V22.775L704.75 22.525L710.775 5.275ZM712.35 9.275L711.725 7.075L711.125 9.325L708.6 17.35H714.975L712.35 9.275ZM723.46 12.05L721.66 11.6V10.25L725.235 9.8H725.31L725.835 10.25V11.3L725.81 11.9C726.41 11.3667 727.202 10.8833 728.185 10.45C729.168 10.0167 730.11 9.8 731.01 9.8C732.06 9.8 732.868 10 733.435 10.4C734.018 10.8 734.427 11.4167 734.66 12.25C734.893 13.0667 735.01 14.175 735.01 15.575V22.575L736.76 22.75V24H730.835V22.775L732.385 22.575V15.55C732.385 14.5667 732.318 13.8 732.185 13.25C732.052 12.6833 731.802 12.2667 731.435 12C731.068 11.7167 730.535 11.575 729.835 11.575C729.235 11.575 728.593 11.725 727.91 12.025C727.227 12.325 726.618 12.675 726.085 13.075V22.55L727.785 22.775V24H721.885V22.775L723.46 22.55V12.05Z" fill="black"/>
</svg>
