<svg width="377" height="114" viewBox="0 0 377 114" fill="none" xmlns="http://www.w3.org/2000/svg">
<line x1="376.664" y1="113.37" x2="290.664" y2="35.3704" stroke="#442526"/>
<line x1="291" y1="35.5" y2="35.5" stroke="#442526"/>
<path d="M31.828 8.975L29.778 8.675V7.425H33.153C33.7197 7.425 34.4364 7.39167 35.303 7.325C36.103 7.25833 36.6947 7.225 37.078 7.225C39.378 7.225 41.0197 7.58333 42.003 8.3C43.003 9.01667 43.503 10.0667 43.503 11.45C43.503 12.6333 43.1614 13.65 42.478 14.5C41.7947 15.35 40.8614 15.8833 39.678 16.1C41.278 16.0667 42.5364 16.4417 43.453 17.225C44.3697 18.0083 44.828 19.075 44.828 20.425C44.828 22.1083 44.228 23.4833 43.028 24.55C41.8447 25.6167 39.878 26.15 37.128 26.15C36.528 26.15 35.953 26.125 35.403 26.075C34.103 26.025 33.328 26 33.078 26H29.753V24.775L31.828 24.525V8.975ZM34.478 15.625C34.7114 15.6417 35.1864 15.65 35.903 15.65H37.278C38.4447 15.65 39.328 15.325 39.928 14.675C40.528 14.025 40.828 13.1 40.828 11.9C40.828 10.7333 40.528 9.88333 39.928 9.35C39.328 8.8 38.303 8.525 36.853 8.525C36.253 8.525 35.6364 8.55833 35.003 8.625L34.478 8.675V15.625ZM34.478 24.6C34.8614 24.7333 35.728 24.8 37.078 24.8C38.7614 24.8 39.978 24.4583 40.728 23.775C41.4947 23.075 41.878 22.075 41.878 20.775C41.878 19.4917 41.5447 18.5583 40.878 17.975C40.228 17.3917 39.1697 17.1 37.703 17.1C36.003 17.1 34.928 17.1167 34.478 17.15V24.6ZM52.9923 26.275C50.9756 26.275 49.434 25.6167 48.3673 24.3C47.3173 22.9833 46.7923 21.225 46.7923 19.025C46.7923 17.575 47.0673 16.3 47.6173 15.2C48.1673 14.1 48.934 13.25 49.9173 12.65C50.9173 12.05 52.0506 11.75 53.3173 11.75C54.8673 11.75 56.0673 12.1833 56.9173 13.05C57.784 13.9 58.2423 15.125 58.2923 16.725C58.2923 17.7417 58.234 18.5167 58.1173 19.05H49.5173C49.5506 20.7 49.934 22.0333 50.6673 23.05C51.4006 24.05 52.4423 24.55 53.7923 24.55C54.459 24.55 55.1506 24.4333 55.8673 24.2C56.6006 23.95 57.1673 23.6583 57.5673 23.325L58.0423 24.425C57.559 24.925 56.8423 25.3583 55.8923 25.725C54.9423 26.0917 53.9756 26.275 52.9923 26.275ZM55.5423 17.725C55.5923 17.375 55.6173 17.0167 55.6173 16.65C55.6006 15.5667 55.3673 14.7167 54.9173 14.1C54.484 13.4667 53.7923 13.15 52.8423 13.15C51.8756 13.15 51.1006 13.5 50.5173 14.2C49.9506 14.9 49.6256 16.075 49.5423 17.725H55.5423ZM55.9673 5.55L59.3173 1.5L60.8923 2.85C60.559 3.31667 59.9173 3.96667 58.9673 4.8C58.0173 5.61667 57.2923 6.13333 56.7923 6.35L55.9673 5.55ZM53.9423 5.475L57.1423 9.275L56.1923 9.875L53.0423 7.2L49.7423 9.875L48.8923 9.3L52.1423 5.475H53.9423ZM61.9409 14.05L60.1409 13.6V12.25L63.7159 11.8H63.7909L64.3159 12.25V13.3L64.2909 13.9C64.8909 13.3667 65.6826 12.8833 66.6659 12.45C67.6493 12.0167 68.5909 11.8 69.4909 11.8C70.5409 11.8 71.3493 12 71.9159 12.4C72.4993 12.8 72.9076 13.4167 73.1409 14.25C73.3743 15.0667 73.4909 16.175 73.4909 17.575V24.575L75.2409 24.75V26H69.3159V24.775L70.8659 24.575V17.55C70.8659 16.5667 70.7993 15.8 70.6659 15.25C70.5326 14.6833 70.2826 14.2667 69.9159 14C69.5493 13.7167 69.0159 13.575 68.3159 13.575C67.7159 13.575 67.0743 13.725 66.3909 14.025C65.7076 14.325 65.0993 14.675 64.5659 15.075V24.55L66.2659 24.775V26H60.3659V24.775L61.9409 24.55V14.05ZM82.6751 19.15C82.6751 17.7667 82.9418 16.5167 83.4751 15.4C84.0251 14.2833 84.8251 13.4 85.8751 12.75C86.9418 12.0833 88.2168 11.75 89.7001 11.75C90.4168 11.75 91.0334 11.8167 91.5501 11.95C92.0668 12.0833 92.6834 12.2667 93.4001 12.5L93.3001 16.35H91.6751L91.1251 13.8C91.0251 13.3333 90.3918 13.1 89.2251 13.1C88.0584 13.1 87.1334 13.575 86.4501 14.525C85.7834 15.4583 85.4501 16.7917 85.4501 18.525C85.4501 20.4917 85.8251 21.9917 86.5751 23.025C87.3418 24.0417 88.3334 24.55 89.5501 24.55C90.2501 24.55 90.9084 24.4417 91.5251 24.225C92.1584 24.0083 92.7001 23.75 93.1501 23.45L93.6251 24.45C93.1751 24.9167 92.5084 25.3417 91.6251 25.725C90.7584 26.0917 89.8751 26.275 88.9751 26.275C87.6084 26.275 86.4501 25.9667 85.5001 25.35C84.5668 24.7333 83.8584 23.8917 83.3751 22.825C82.9084 21.7417 82.6751 20.5167 82.6751 19.15ZM95.7925 22.25C95.7925 20.6833 96.5758 19.5333 98.1425 18.8C99.7091 18.05 101.692 17.65 104.092 17.6V16.9C104.092 16.1167 104.009 15.5 103.842 15.05C103.676 14.6 103.384 14.275 102.967 14.075C102.567 13.8583 101.992 13.75 101.242 13.75C100.392 13.75 99.6258 13.875 98.9425 14.125C98.2758 14.3583 97.6091 14.65 96.9425 15L96.3175 13.7C96.5341 13.5167 96.9341 13.275 97.5175 12.975C98.1008 12.675 98.7758 12.4083 99.5425 12.175C100.309 11.9417 101.076 11.825 101.842 11.825C103.026 11.825 103.959 11.9917 104.642 12.325C105.342 12.6417 105.842 13.1583 106.142 13.875C106.442 14.5917 106.592 15.55 106.592 16.75V24.775H108.067V25.875C107.734 25.9583 107.309 26.0417 106.792 26.125C106.292 26.2083 105.851 26.25 105.467 26.25C105.001 26.25 104.684 26.175 104.517 26.025C104.351 25.8917 104.267 25.5833 104.267 25.1V24.275C103.767 24.775 103.151 25.2333 102.417 25.65C101.701 26.0667 100.884 26.275 99.9675 26.275C98.7675 26.275 97.7675 25.9333 96.9675 25.25C96.1841 24.55 95.7925 23.55 95.7925 22.25ZM101.042 24.575C101.476 24.575 101.976 24.4417 102.542 24.175C103.109 23.9083 103.626 23.5917 104.092 23.225V18.925C102.276 18.925 100.901 19.2083 99.9675 19.775C99.0508 20.325 98.5925 21.05 98.5925 21.95C98.5925 22.85 98.8091 23.5167 99.2425 23.95C99.6925 24.3667 100.292 24.575 101.042 24.575ZM101.042 10.475C100.926 10.325 100.809 10.1333 100.692 9.9C100.592 9.65 100.542 9.43333 100.542 9.25C100.542 9.1 100.592 8.975 100.692 8.875C100.792 8.775 100.951 8.65 101.167 8.5C101.417 8.33333 101.609 8.175 101.742 8.025C101.876 7.875 101.942 7.69167 101.942 7.475C101.942 7.075 101.826 6.75833 101.592 6.525C101.359 6.275 101.009 6.15 100.542 6.15C100.076 6.15 99.7008 6.24167 99.4175 6.425L99.3675 4.85C99.9008 4.6 100.442 4.475 100.992 4.475C101.926 4.475 102.651 4.70833 103.167 5.175C103.701 5.64167 103.967 6.28333 103.967 7.1C103.967 7.51667 103.867 7.84167 103.667 8.075C103.484 8.30833 103.192 8.55833 102.792 8.825C102.509 9.025 102.334 9.15833 102.267 9.225C102.151 9.34167 102.092 9.56667 102.092 9.9C102.092 10.1 102.117 10.2917 102.167 10.475H101.042ZM111.306 14.05L109.506 13.6V12.25L113.081 11.8H113.156L113.681 12.25V13.3L113.656 13.9C114.256 13.3667 115.048 12.8833 116.031 12.45C117.014 12.0167 117.956 11.8 118.856 11.8C119.906 11.8 120.714 12 121.281 12.4C121.864 12.8 122.273 13.4167 122.506 14.25C122.739 15.0667 122.856 16.175 122.856 17.575V24.575L124.606 24.75V26H118.681V24.775L120.231 24.575V17.55C120.231 16.5667 120.164 15.8 120.031 15.25C119.898 14.6833 119.648 14.2667 119.281 14C118.914 13.7167 118.381 13.575 117.681 13.575C117.081 13.575 116.439 13.725 115.756 14.025C115.073 14.325 114.464 14.675 113.931 15.075V24.55L115.631 24.775V26H109.731V24.775L111.306 24.55V14.05ZM132.383 32.75C130.249 32.75 128.699 32.4083 127.733 31.725C126.783 31.0583 126.308 30.1333 126.308 28.95C126.308 28.2167 126.533 27.5417 126.983 26.925C127.449 26.3083 127.999 25.8417 128.633 25.525C127.866 25.0917 127.483 24.3917 127.483 23.425C127.483 22.825 127.658 22.2583 128.008 21.725C128.358 21.1917 128.816 20.7833 129.383 20.5C128.549 20.1333 127.908 19.6083 127.458 18.925C127.024 18.2417 126.808 17.4333 126.808 16.5C126.808 15.5333 127.074 14.6917 127.608 13.975C128.158 13.2583 128.874 12.7083 129.758 12.325C130.658 11.9417 131.608 11.75 132.608 11.75C134.291 11.75 135.608 12.1 136.558 12.8C136.808 12.55 137.191 12.3083 137.708 12.075C138.224 11.8417 138.774 11.725 139.358 11.725H140.208V13.925H137.458C137.858 14.5417 138.058 15.2583 138.058 16.075C138.058 17.0583 137.808 17.9333 137.308 18.7C136.824 19.45 136.141 20.0333 135.258 20.45C134.391 20.8667 133.408 21.075 132.308 21.075C131.591 21.075 130.949 21 130.383 20.85C130.149 21.0833 129.958 21.3417 129.808 21.625C129.658 21.9083 129.583 22.1833 129.583 22.45C129.583 23.05 129.783 23.4667 130.183 23.7C130.583 23.9167 131.299 24.025 132.333 24.025H135.158C136.774 24.025 137.974 24.3333 138.758 24.95C139.541 25.5667 139.933 26.4417 139.933 27.575C139.933 28.525 139.591 29.3917 138.908 30.175C138.224 30.975 137.299 31.6 136.133 32.05C134.983 32.5167 133.733 32.75 132.383 32.75ZM132.558 19.7C134.458 19.7 135.408 18.575 135.408 16.325C135.408 15.2083 135.158 14.3917 134.658 13.875C134.174 13.3417 133.441 13.075 132.458 13.075C131.541 13.075 130.816 13.3333 130.283 13.85C129.749 14.35 129.483 15.1583 129.483 16.275C129.483 17.325 129.733 18.1583 130.233 18.775C130.749 19.3917 131.524 19.7 132.558 19.7ZM132.608 31.3C133.424 31.3 134.191 31.175 134.908 30.925C135.641 30.6917 136.233 30.3333 136.683 29.85C137.133 29.3833 137.358 28.8333 137.358 28.2C137.358 27.45 137.158 26.9 136.758 26.55C136.358 26.2167 135.583 26.05 134.433 26.05H131.483C130.816 26.05 130.291 26.0083 129.908 25.925C129.224 26.675 128.883 27.5167 128.883 28.45C128.883 29.3833 129.166 30.0917 129.733 30.575C130.299 31.0583 131.258 31.3 132.608 31.3ZM149.651 8.975L147.651 8.675V7.425H152.301L160.626 19.625L162.026 22.275V8.975L159.851 8.675V7.425H165.751V8.675L163.751 8.975V26H161.776L153.276 13.525L151.351 10.225V24.525L153.726 24.775V26H147.651V24.775L149.651 24.5V8.975ZM168.847 7.35L166.747 7.075V6L170.822 5.525H170.872L171.422 5.9V11.7L171.322 13.825C171.855 13.3417 172.588 12.8833 173.522 12.45C174.455 12.0167 175.397 11.8 176.347 11.8C177.397 11.8 178.213 12 178.797 12.4C179.38 12.8 179.788 13.4167 180.022 14.25C180.255 15.0667 180.372 16.175 180.372 17.575V24.55L182.122 24.775V26H176.147V24.775L177.772 24.55V17.55C177.772 16.5667 177.705 15.8 177.572 15.25C177.438 14.6833 177.188 14.2667 176.822 14C176.455 13.7167 175.905 13.575 175.172 13.575C174.572 13.575 173.93 13.725 173.247 14.025C172.563 14.325 171.963 14.675 171.447 15.075V24.55L173.172 24.775V26H167.347V24.775L168.847 24.575V7.35ZM183.976 22.25C183.976 20.6833 184.759 19.5333 186.326 18.8C187.893 18.05 189.876 17.65 192.276 17.6V16.9C192.276 16.1167 192.193 15.5 192.026 15.05C191.859 14.6 191.568 14.275 191.151 14.075C190.751 13.8583 190.176 13.75 189.426 13.75C188.576 13.75 187.809 13.875 187.126 14.125C186.459 14.3583 185.793 14.65 185.126 15L184.501 13.7C184.718 13.5167 185.118 13.275 185.701 12.975C186.284 12.675 186.959 12.4083 187.726 12.175C188.493 11.9417 189.259 11.825 190.026 11.825C191.209 11.825 192.143 11.9917 192.826 12.325C193.526 12.6417 194.026 13.1583 194.326 13.875C194.626 14.5917 194.776 15.55 194.776 16.75V24.775H196.251V25.875C195.918 25.9583 195.493 26.0417 194.976 26.125C194.476 26.2083 194.034 26.25 193.651 26.25C193.184 26.25 192.868 26.175 192.701 26.025C192.534 25.8917 192.451 25.5833 192.451 25.1V24.275C191.951 24.775 191.334 25.2333 190.601 25.65C189.884 26.0667 189.068 26.275 188.151 26.275C186.951 26.275 185.951 25.9333 185.151 25.25C184.368 24.55 183.976 23.55 183.976 22.25ZM189.226 24.575C189.659 24.575 190.159 24.4417 190.726 24.175C191.293 23.9083 191.809 23.5917 192.276 23.225V18.925C190.459 18.925 189.084 19.2083 188.151 19.775C187.234 20.325 186.776 21.05 186.776 21.95C186.776 22.85 186.993 23.5167 187.426 23.95C187.876 24.3667 188.476 24.575 189.226 24.575ZM190.401 9.675C190.068 9.54167 189.551 9.20833 188.851 8.675C188.151 8.14167 187.476 7.56667 186.826 6.95C186.176 6.33333 185.743 5.84167 185.526 5.475L187.326 3.9L191.351 8.85L190.426 9.675H190.401ZM203.947 24.775L206.022 24.525V8.975L204.072 8.65V7.425H207.347C207.814 7.425 208.447 7.39167 209.247 7.325C210.081 7.25833 210.731 7.225 211.197 7.225C213.647 7.225 215.389 7.625 216.422 8.425C217.472 9.20833 217.997 10.45 217.997 12.15C217.997 13.3333 217.664 14.4167 216.997 15.4C216.347 16.3833 215.447 17.05 214.297 17.4C214.831 17.6833 215.322 18.175 215.772 18.875C216.239 19.5583 216.806 20.5167 217.472 21.75C217.989 22.6833 218.381 23.3667 218.647 23.8C218.931 24.2333 219.197 24.475 219.447 24.525L220.422 24.775V26H216.972C216.706 26 216.406 25.7167 216.072 25.15C215.739 24.5667 215.297 23.675 214.747 22.475C214.147 21.1583 213.622 20.1167 213.172 19.35C212.739 18.5667 212.306 18.0667 211.872 17.85C210.089 17.85 209.031 17.8417 208.697 17.825V24.525L211.172 24.775V26H203.947V24.775ZM211.672 16.5C212.739 16.5 213.581 16.15 214.197 15.45C214.814 14.75 215.122 13.7083 215.122 12.325C215.122 11.1083 214.806 10.1833 214.172 9.55C213.556 8.9 212.481 8.575 210.947 8.575C210.414 8.575 209.881 8.60833 209.347 8.675C209.014 8.70833 208.797 8.725 208.697 8.725V16.475C208.947 16.4917 209.464 16.5 210.247 16.5H211.672ZM221.525 19.025C221.525 17.525 221.833 16.225 222.45 15.125C223.067 14.025 223.875 13.1917 224.875 12.625C225.892 12.0417 226.975 11.75 228.125 11.75C230.225 11.75 231.8 12.4167 232.85 13.75C233.917 15.0833 234.45 16.8333 234.45 19C234.45 20.5167 234.142 21.825 233.525 22.925C232.908 24.025 232.092 24.8583 231.075 25.425C230.075 25.9917 229 26.275 227.85 26.275C225.75 26.275 224.167 25.6083 223.1 24.275C222.05 22.9417 221.525 21.1917 221.525 19.025ZM228 24.85C229.15 24.85 230.033 24.375 230.65 23.425C231.267 22.475 231.575 21.0667 231.575 19.2C231.575 17.35 231.292 15.8833 230.725 14.8C230.158 13.7167 229.25 13.175 228 13.175C226.85 13.175 225.958 13.65 225.325 14.6C224.708 15.55 224.4 16.9583 224.4 18.825C224.4 20.675 224.692 22.1417 225.275 23.225C225.858 24.3083 226.767 24.85 228 24.85ZM233 5.7C232.533 5.5 231.95 5.11667 231.25 4.55C230.55 3.96667 229.942 3.375 229.425 2.775L231 1.425L233.8 4.925L233 5.7ZM228.95 5.475L232.15 9.275L231.2 9.875L228.05 7.2L224.75 9.875L223.9 9.3L227.15 5.475H228.95ZM238.235 14.05L236.435 13.6V12.25L240.01 11.8H240.085L240.61 12.25V13.3L240.585 13.9C241.185 13.3667 241.977 12.8833 242.96 12.45C243.943 12.0167 244.885 11.8 245.785 11.8C246.835 11.8 247.643 12 248.21 12.4C248.793 12.8 249.202 13.4167 249.435 14.25C249.668 15.0667 249.785 16.175 249.785 17.575V24.575L251.535 24.75V26H245.61V24.775L247.16 24.575V17.55C247.16 16.5667 247.093 15.8 246.96 15.25C246.827 14.6833 246.577 14.2667 246.21 14C245.843 13.7167 245.31 13.575 244.61 13.575C244.01 13.575 243.368 13.725 242.685 14.025C242.002 14.325 241.393 14.675 240.86 15.075V24.55L242.56 24.775V26H236.66V24.775L238.235 24.55V14.05ZM259.311 32.75C257.178 32.75 255.628 32.4083 254.661 31.725C253.711 31.0583 253.236 30.1333 253.236 28.95C253.236 28.2167 253.461 27.5417 253.911 26.925C254.378 26.3083 254.928 25.8417 255.561 25.525C254.795 25.0917 254.411 24.3917 254.411 23.425C254.411 22.825 254.586 22.2583 254.936 21.725C255.286 21.1917 255.745 20.7833 256.311 20.5C255.478 20.1333 254.836 19.6083 254.386 18.925C253.953 18.2417 253.736 17.4333 253.736 16.5C253.736 15.5333 254.003 14.6917 254.536 13.975C255.086 13.2583 255.803 12.7083 256.686 12.325C257.586 11.9417 258.536 11.75 259.536 11.75C261.22 11.75 262.536 12.1 263.486 12.8C263.736 12.55 264.12 12.3083 264.636 12.075C265.153 11.8417 265.703 11.725 266.286 11.725H267.136V13.925H264.386C264.786 14.5417 264.986 15.2583 264.986 16.075C264.986 17.0583 264.736 17.9333 264.236 18.7C263.753 19.45 263.07 20.0333 262.186 20.45C261.32 20.8667 260.336 21.075 259.236 21.075C258.52 21.075 257.878 21 257.311 20.85C257.078 21.0833 256.886 21.3417 256.736 21.625C256.586 21.9083 256.511 22.1833 256.511 22.45C256.511 23.05 256.711 23.4667 257.111 23.7C257.511 23.9167 258.228 24.025 259.261 24.025H262.086C263.703 24.025 264.903 24.3333 265.686 24.95C266.47 25.5667 266.861 26.4417 266.861 27.575C266.861 28.525 266.52 29.3917 265.836 30.175C265.153 30.975 264.228 31.6 263.061 32.05C261.911 32.5167 260.661 32.75 259.311 32.75ZM259.486 19.7C261.386 19.7 262.336 18.575 262.336 16.325C262.336 15.2083 262.086 14.3917 261.586 13.875C261.103 13.3417 260.37 13.075 259.386 13.075C258.47 13.075 257.745 13.3333 257.211 13.85C256.678 14.35 256.411 15.1583 256.411 16.275C256.411 17.325 256.661 18.1583 257.161 18.775C257.678 19.3917 258.453 19.7 259.486 19.7ZM259.536 31.3C260.353 31.3 261.12 31.175 261.836 30.925C262.57 30.6917 263.161 30.3333 263.611 29.85C264.061 29.3833 264.286 28.8333 264.286 28.2C264.286 27.45 264.086 26.9 263.686 26.55C263.286 26.2167 262.511 26.05 261.361 26.05H258.411C257.745 26.05 257.22 26.0083 256.836 25.925C256.153 26.675 255.811 27.5167 255.811 28.45C255.811 29.3833 256.095 30.0917 256.661 30.575C257.228 31.0583 258.186 31.3 259.536 31.3ZM7.64258 43.75L3.34258 43.9L2.46758 49.125H0.817578L1.24258 42.425H16.8176L17.1176 49.125H15.5426L14.7176 43.9L10.3926 43.75V59.525L13.9426 59.775V61H4.39258V59.775L7.64258 59.525V43.75ZM20.1771 42.35L18.0771 42.075V41L22.1521 40.525H22.2021L22.7521 40.9V46.7L22.6521 48.825C23.1855 48.3417 23.9188 47.8833 24.8521 47.45C25.7855 47.0167 26.7271 46.8 27.6771 46.8C28.7271 46.8 29.5438 47 30.1271 47.4C30.7105 47.8 31.1188 48.4167 31.3521 49.25C31.5855 50.0667 31.7021 51.175 31.7021 52.575V59.55L33.4521 59.775V61H27.4771V59.775L29.1021 59.55V52.55C29.1021 51.5667 29.0355 50.8 28.9021 50.25C28.7688 49.6833 28.5188 49.2667 28.1521 49C27.7855 48.7167 27.2355 48.575 26.5021 48.575C25.9021 48.575 25.2605 48.725 24.5771 49.025C23.8938 49.325 23.2938 49.675 22.7771 50.075V59.55L24.5021 59.775V61H18.6771V59.775L20.1771 59.575V42.35ZM35.3066 57.25C35.3066 55.6833 36.09 54.5333 37.6566 53.8C39.2233 53.05 41.2066 52.65 43.6066 52.6V51.9C43.6066 51.1167 43.5233 50.5 43.3566 50.05C43.19 49.6 42.8983 49.275 42.4816 49.075C42.0816 48.8583 41.5066 48.75 40.7566 48.75C39.9066 48.75 39.14 48.875 38.4566 49.125C37.79 49.3583 37.1233 49.65 36.4566 50L35.8316 48.7C36.0483 48.5167 36.4483 48.275 37.0316 47.975C37.615 47.675 38.29 47.4083 39.0566 47.175C39.8233 46.9417 40.59 46.825 41.3566 46.825C42.54 46.825 43.4733 46.9917 44.1566 47.325C44.8566 47.6417 45.3566 48.1583 45.6566 48.875C45.9566 49.5917 46.1066 50.55 46.1066 51.75V59.775H47.5816V60.875C47.2483 60.9583 46.8233 61.0417 46.3066 61.125C45.8066 61.2083 45.365 61.25 44.9816 61.25C44.515 61.25 44.1983 61.175 44.0316 61.025C43.865 60.8917 43.7816 60.5833 43.7816 60.1V59.275C43.2816 59.775 42.665 60.2333 41.9316 60.65C41.215 61.0667 40.3983 61.275 39.4816 61.275C38.2816 61.275 37.2816 60.9333 36.4816 60.25C35.6983 59.55 35.3066 58.55 35.3066 57.25ZM40.5566 59.575C40.99 59.575 41.49 59.4417 42.0566 59.175C42.6233 58.9083 43.14 58.5917 43.6066 58.225V53.925C41.79 53.925 40.415 54.2083 39.4816 54.775C38.565 55.325 38.1066 56.05 38.1066 56.95C38.1066 57.85 38.3233 58.5167 38.7566 58.95C39.2066 59.3667 39.8066 59.575 40.5566 59.575ZM41.7316 44.675C41.3983 44.5417 40.8816 44.2083 40.1816 43.675C39.4816 43.1417 38.8066 42.5667 38.1566 41.95C37.5066 41.3333 37.0733 40.8417 36.8566 40.475L38.6566 38.9L42.6816 43.85L41.7566 44.675H41.7316ZM50.8203 49.05L49.0203 48.6V47.25L52.5953 46.8H52.6703L53.1953 47.25V48.3L53.1703 48.9C53.7703 48.3667 54.562 47.8833 55.5453 47.45C56.5286 47.0167 57.4703 46.8 58.3703 46.8C59.4203 46.8 60.2286 47 60.7953 47.4C61.3786 47.8 61.787 48.4167 62.0203 49.25C62.2536 50.0667 62.3703 51.175 62.3703 52.575V59.575L64.1203 59.75V61H58.1953V59.775L59.7453 59.575V52.55C59.7453 51.5667 59.6786 50.8 59.5453 50.25C59.412 49.6833 59.162 49.2667 58.7953 49C58.4286 48.7167 57.8953 48.575 57.1953 48.575C56.5953 48.575 55.9536 48.725 55.2703 49.025C54.587 49.325 53.9786 49.675 53.4453 50.075V59.55L55.1453 59.775V61H49.2453V59.775L50.8203 59.55V49.05ZM67.2719 42.35L65.1719 42.075V41L69.2469 40.525H69.2969L69.8469 40.9V46.7L69.7469 48.825C70.2802 48.3417 71.0135 47.8833 71.9469 47.45C72.8802 47.0167 73.8219 46.8 74.7719 46.8C75.8219 46.8 76.6385 47 77.2219 47.4C77.8052 47.8 78.2135 48.4167 78.4469 49.25C78.6802 50.0667 78.7969 51.175 78.7969 52.575V59.55L80.5469 59.775V61H74.5719V59.775L76.1969 59.55V52.55C76.1969 51.5667 76.1302 50.8 75.9969 50.25C75.8635 49.6833 75.6135 49.2667 75.2469 49C74.8802 48.7167 74.3302 48.575 73.5969 48.575C72.9969 48.575 72.3552 48.725 71.6719 49.025C70.9885 49.325 70.3885 49.675 69.8719 50.075V59.55L71.5969 59.775V61H65.7719V59.775L67.2719 59.575V42.35ZM101.859 53.575C101.859 54.9917 101.567 56.2917 100.984 57.475C100.401 58.6417 99.5673 59.5667 98.484 60.25C97.4007 60.9333 96.134 61.275 94.684 61.275C94.284 61.275 93.8507 61.2417 93.384 61.175C92.9173 61.1083 92.5423 61.025 92.259 60.925L92.334 63.025V65.55L94.934 65.825V67.05H87.959V65.825L89.759 65.55V49.05L87.934 48.6V47.25L91.484 46.8H91.534L92.059 47.25V48.725C92.559 48.175 93.1757 47.7083 93.909 47.325C94.659 46.9417 95.4923 46.75 96.409 46.75C97.3923 46.75 98.2923 46.9917 99.109 47.475C99.9423 47.9583 100.609 48.7083 101.109 49.725C101.609 50.7417 101.859 52.025 101.859 53.575ZM95.384 48.5C94.7507 48.5 94.159 48.6333 93.609 48.9C93.059 49.1667 92.634 49.4583 92.334 49.775V59.2C92.4507 59.4 92.7423 59.5833 93.209 59.75C93.6923 59.9 94.2173 59.975 94.784 59.975C96.0673 59.975 97.1007 59.4667 97.884 58.45C98.684 57.4333 99.084 55.9 99.084 53.85C99.084 52.05 98.734 50.7083 98.034 49.825C97.3507 48.9417 96.4673 48.5 95.384 48.5ZM105.382 42.35L103.282 42.075V41L107.357 40.525H107.407L107.957 40.9V46.7L107.857 48.825C108.391 48.3417 109.124 47.8833 110.057 47.45C110.991 47.0167 111.932 46.8 112.882 46.8C113.932 46.8 114.749 47 115.332 47.4C115.916 47.8 116.324 48.4167 116.557 49.25C116.791 50.0667 116.907 51.175 116.907 52.575V59.55L118.657 59.775V61H112.682V59.775L114.307 59.55V52.55C114.307 51.5667 114.241 50.8 114.107 50.25C113.974 49.6833 113.724 49.2667 113.357 49C112.991 48.7167 112.441 48.575 111.707 48.575C111.107 48.575 110.466 48.725 109.782 49.025C109.099 49.325 108.499 49.675 107.982 50.075V59.55L109.707 59.775V61H103.882V59.775L105.382 59.575V42.35ZM120.512 54.025C120.512 52.525 120.82 51.225 121.437 50.125C122.053 49.025 122.862 48.1917 123.862 47.625C124.878 47.0417 125.962 46.75 127.112 46.75C129.212 46.75 130.787 47.4167 131.837 48.75C132.903 50.0833 133.437 51.8333 133.437 54C133.437 55.5167 133.128 56.825 132.512 57.925C131.895 59.025 131.078 59.8583 130.062 60.425C129.062 60.9917 127.987 61.275 126.837 61.275C124.737 61.275 123.153 60.6083 122.087 59.275C121.037 57.9417 120.512 56.1917 120.512 54.025ZM126.987 59.85C128.137 59.85 129.02 59.375 129.637 58.425C130.253 57.475 130.562 56.0667 130.562 54.2C130.562 52.35 130.278 50.8833 129.712 49.8C129.145 48.7167 128.237 48.175 126.987 48.175C125.837 48.175 124.945 48.65 124.312 49.6C123.695 50.55 123.387 51.9583 123.387 53.825C123.387 55.675 123.678 57.1417 124.262 58.225C124.845 59.3083 125.753 59.85 126.987 59.85ZM129.962 40.55L133.312 36.5L134.887 37.85C134.553 38.3167 133.912 38.9667 132.962 39.8C132.012 40.6167 131.287 41.1333 130.787 41.35L129.962 40.55ZM127.937 40.475L131.137 44.275L130.187 44.875L127.037 42.2L123.737 44.875L122.887 44.3L126.137 40.475H127.937ZM143.804 43.975L141.829 43.675V42.425H148.629V43.675L146.479 43.975V50.7H155.279V43.975L153.254 43.675V42.425H159.954V43.675L157.979 43.975V59.525L159.954 59.775V61H153.229V59.775L155.279 59.525V52.25H146.479V59.525L148.654 59.775V61H141.779V59.775L143.804 59.525V43.975ZM162.357 54.025C162.357 52.525 162.666 51.225 163.282 50.125C163.899 49.025 164.707 48.1917 165.707 47.625C166.724 47.0417 167.807 46.75 168.957 46.75C171.057 46.75 172.632 47.4167 173.682 48.75C174.749 50.0833 175.282 51.8333 175.282 54C175.282 55.5167 174.974 56.825 174.357 57.925C173.741 59.025 172.924 59.8583 171.907 60.425C170.907 60.9917 169.832 61.275 168.682 61.275C166.582 61.275 164.999 60.6083 163.932 59.275C162.882 57.9417 162.357 56.1917 162.357 54.025ZM168.832 59.85C169.982 59.85 170.866 59.375 171.482 58.425C172.099 57.475 172.407 56.0667 172.407 54.2C172.407 52.35 172.124 50.8833 171.557 49.8C170.991 48.7167 170.082 48.175 168.832 48.175C167.682 48.175 166.791 48.65 166.157 49.6C165.541 50.55 165.232 51.9583 165.232 53.825C165.232 55.675 165.524 57.1417 166.107 58.225C166.691 59.3083 167.599 59.85 168.832 59.85ZM173.832 40.7C173.366 40.5 172.782 40.1167 172.082 39.55C171.382 38.9667 170.774 38.375 170.257 37.775L171.832 36.425L174.632 39.925L173.832 40.7ZM169.782 40.475L172.982 44.275L172.032 44.875L168.882 42.2L165.582 44.875L164.732 44.3L167.982 40.475H169.782ZM191.825 61.275C189.992 61.275 188.425 60.8833 187.125 60.1C185.842 59.3 184.867 58.1833 184.2 56.75C183.533 55.3167 183.2 53.6333 183.2 51.7C183.2 49.8333 183.592 48.1833 184.375 46.75C185.158 45.3167 186.233 44.2083 187.6 43.425C188.967 42.625 190.5 42.225 192.2 42.225C193.483 42.225 195.025 42.425 196.825 42.825L197.65 42.975L197.4 47.475H195.725L195.1 44.3C194.867 44.1 194.458 43.9333 193.875 43.8C193.308 43.65 192.608 43.575 191.775 43.575C190.708 43.575 189.758 43.8833 188.925 44.5C188.092 45.1 187.433 45.9917 186.95 47.175C186.483 48.3583 186.25 49.775 186.25 51.425C186.25 52.9917 186.458 54.4167 186.875 55.7C187.292 56.9833 187.925 58.0083 188.775 58.775C189.625 59.525 190.675 59.9 191.925 59.9C192.808 59.9 193.483 59.825 193.95 59.675C194.433 59.525 194.842 59.3083 195.175 59.025L196.225 56.575L197.8 56.775L197.2 60.325C196.85 60.3417 196.333 60.4583 195.65 60.675C195.05 60.8583 194.467 61 193.9 61.1C193.35 61.2167 192.658 61.275 191.825 61.275ZM201.183 42.35L199.083 42.075V41L203.158 40.525H203.208L203.758 40.9V46.7L203.658 48.825C204.191 48.3417 204.925 47.8833 205.858 47.45C206.791 47.0167 207.733 46.8 208.683 46.8C209.733 46.8 210.55 47 211.133 47.4C211.716 47.8 212.125 48.4167 212.358 49.25C212.591 50.0667 212.708 51.175 212.708 52.575V59.55L214.458 59.775V61H208.483V59.775L210.108 59.55V52.55C210.108 51.5667 210.041 50.8 209.908 50.25C209.775 49.6833 209.525 49.2667 209.158 49C208.791 48.7167 208.241 48.575 207.508 48.575C206.908 48.575 206.266 48.725 205.583 49.025C204.9 49.325 204.3 49.675 203.783 50.075V59.55L205.508 59.775V61H199.683V59.775L201.183 59.575V42.35ZM218.263 49.05L216.363 48.6V47.275L220.238 46.8H220.288L220.863 47.25V59.575L222.863 59.775V61H216.238V59.775L218.263 59.55V49.05ZM217.413 43.85L221.413 38.875L223.313 40.475C222.963 41.0417 222.213 41.8167 221.063 42.8C219.913 43.7833 219.021 44.4083 218.388 44.675L217.413 43.85ZM233.545 43.975L230.82 43.675V42.425H237.445L240.97 53.675L241.795 56.85L242.545 53.675L246.045 42.425H252.62V43.675L249.87 43.975L251.87 59.5L254.045 59.775V61H246.845V59.775L249.12 59.525L247.995 48.3L247.47 43.475L246.42 47.075L242.245 60.15H240.62L236.57 48.175L235.095 43.45L234.645 48.3L233.645 59.525L236.12 59.775V61H229.595V59.775L231.72 59.525L233.545 43.975ZM258.276 44.625C257.743 44.625 257.343 44.475 257.076 44.175C256.81 43.875 256.676 43.4917 256.676 43.025C256.676 42.4917 256.835 42.05 257.151 41.7C257.485 41.35 257.935 41.175 258.501 41.175C259.068 41.175 259.485 41.325 259.751 41.625C260.018 41.925 260.151 42.3083 260.151 42.775C260.151 43.3417 259.985 43.7917 259.651 44.125C259.335 44.4583 258.885 44.625 258.301 44.625H258.276ZM257.276 49.05L255.376 48.6V47.275L259.251 46.8H259.301L259.876 47.25V59.575L261.876 59.775V61H255.251V59.775L257.276 59.55V49.05ZM265.151 49.05L263.351 48.6V47.25L266.926 46.8H267.001L267.526 47.25V48.3L267.501 48.9C268.101 48.3667 268.893 47.8833 269.876 47.45C270.86 47.0167 271.801 46.8 272.701 46.8C273.751 46.8 274.56 47 275.126 47.4C275.71 47.8 276.118 48.4167 276.351 49.25C276.585 50.0667 276.701 51.175 276.701 52.575V59.575L278.451 59.75V61H272.526V59.775L274.076 59.575V52.55C274.076 51.5667 274.01 50.8 273.876 50.25C273.743 49.6833 273.493 49.2667 273.126 49C272.76 48.7167 272.226 48.575 271.526 48.575C270.926 48.575 270.285 48.725 269.601 49.025C268.918 49.325 268.31 49.675 267.776 50.075V59.55L269.476 59.775V61H263.576V59.775L265.151 59.55V49.05ZM281.603 42.35L279.503 42.075V41L283.578 40.525H283.628L284.178 40.9V46.7L284.078 48.825C284.611 48.3417 285.345 47.8833 286.278 47.45C287.211 47.0167 288.153 46.8 289.103 46.8C290.153 46.8 290.97 47 291.553 47.4C292.136 47.8 292.545 48.4167 292.778 49.25C293.011 50.0667 293.128 51.175 293.128 52.575V59.55L294.878 59.775V61H288.903V59.775L290.528 59.55V52.55C290.528 51.5667 290.461 50.8 290.328 50.25C290.195 49.6833 289.945 49.2667 289.578 49C289.211 48.7167 288.661 48.575 287.928 48.575C287.328 48.575 286.686 48.725 286.003 49.025C285.32 49.325 284.72 49.675 284.203 50.075V59.55L285.928 59.775V61H280.103V59.775L281.603 59.575V42.35Z" fill="black"/>
</svg>
