<svg width="235" height="58" viewBox="0 0 235 58" fill="none" xmlns="http://www.w3.org/2000/svg">
<line x1="0.908543" y1="57.2988" x2="20.2988" y2="32.0915" stroke="#442526" stroke-linecap="round"/>
<path d="M21 32.0071L234 31.9967" stroke="#442526" stroke-linecap="round"/>
<path d="M25.275 7.975L23.325 7.675V6.425H26.65C27.25 6.425 27.8417 6.4 28.425 6.35C29.325 6.28333 30.175 6.25 30.975 6.25C33.3917 6.26667 35.1 6.71667 36.1 7.6C37.1 8.48333 37.6 9.81667 37.6 11.6C37.6 12.9333 37.2917 14.0917 36.675 15.075C36.0583 16.0583 35.2 16.8083 34.1 17.325C33.0167 17.8417 31.7667 18.1 30.35 18.1C29.8667 18.1 29.375 18.0917 28.875 18.075C28.375 18.0417 28.0667 18.0167 27.95 18V23.5L31.375 23.775V25H23.2V23.775L25.275 23.525V7.975ZM27.95 16.625C28.4167 16.7083 29.2167 16.75 30.35 16.75C31.6667 16.75 32.7333 16.35 33.55 15.55C34.3833 14.75 34.8 13.4417 34.8 11.625C34.8 10.1917 34.4417 9.16667 33.725 8.55C33.0083 7.91667 31.8917 7.6 30.375 7.6C29.8417 7.6 29.275 7.63333 28.675 7.7C28.3083 7.73333 28.0667 7.75 27.95 7.75V16.625ZM39.3604 21.25C39.3604 19.6833 40.1437 18.5333 41.7104 17.8C43.277 17.05 45.2604 16.65 47.6604 16.6V15.9C47.6604 15.1167 47.577 14.5 47.4104 14.05C47.2437 13.6 46.952 13.275 46.5354 13.075C46.1354 12.8583 45.5604 12.75 44.8104 12.75C43.9604 12.75 43.1937 12.875 42.5104 13.125C41.8437 13.3583 41.177 13.65 40.5104 14L39.8854 12.7C40.102 12.5167 40.502 12.275 41.0854 11.975C41.6687 11.675 42.3437 11.4083 43.1104 11.175C43.877 10.9417 44.6437 10.825 45.4104 10.825C46.5937 10.825 47.527 10.9917 48.2104 11.325C48.9104 11.6417 49.4104 12.1583 49.7104 12.875C50.0104 13.5917 50.1604 14.55 50.1604 15.75V23.775H51.6354V24.875C51.302 24.9583 50.877 25.0417 50.3604 25.125C49.8604 25.2083 49.4187 25.25 49.0354 25.25C48.5687 25.25 48.252 25.175 48.0854 25.025C47.9187 24.8917 47.8354 24.5833 47.8354 24.1V23.275C47.3354 23.775 46.7187 24.2333 45.9854 24.65C45.2687 25.0667 44.452 25.275 43.5354 25.275C42.3354 25.275 41.3354 24.9333 40.5354 24.25C39.752 23.55 39.3604 22.55 39.3604 21.25ZM44.6104 23.575C45.0437 23.575 45.5437 23.4417 46.1104 23.175C46.677 22.9083 47.1937 22.5917 47.6604 22.225V17.925C45.8437 17.925 44.4687 18.2083 43.5354 18.775C42.6187 19.325 42.1604 20.05 42.1604 20.95C42.1604 21.85 42.377 22.5167 42.8104 22.95C43.2604 23.3667 43.8604 23.575 44.6104 23.575ZM43.1104 7.85L47.1104 2.875L49.0104 4.475C48.6604 5.04167 47.9104 5.81667 46.7604 6.8C45.6104 7.78333 44.7187 8.40833 44.0854 8.675L43.1104 7.85ZM53.074 18.15C53.074 16.7667 53.3407 15.5167 53.874 14.4C54.424 13.2833 55.224 12.4 56.274 11.75C57.3407 11.0833 58.6157 10.75 60.099 10.75C60.8157 10.75 61.4324 10.8167 61.949 10.95C62.4657 11.0833 63.0824 11.2667 63.799 11.5L63.699 15.35H62.074L61.524 12.8C61.424 12.3333 60.7907 12.1 59.624 12.1C58.4574 12.1 57.5324 12.575 56.849 13.525C56.1824 14.4583 55.849 15.7917 55.849 17.525C55.849 19.4917 56.224 20.9917 56.974 22.025C57.7407 23.0417 58.7324 23.55 59.949 23.55C60.649 23.55 61.3074 23.4417 61.924 23.225C62.5574 23.0083 63.099 22.75 63.549 22.45L64.024 23.45C63.574 23.9167 62.9074 24.3417 62.024 24.725C61.1574 25.0917 60.274 25.275 59.374 25.275C58.0074 25.275 56.849 24.9667 55.899 24.35C54.9657 23.7333 54.2574 22.8917 53.774 21.825C53.3074 20.7417 53.074 19.5167 53.074 18.15ZM74.224 7.975L72.174 7.675V6.425H75.549C76.1157 6.425 76.8324 6.39167 77.699 6.325C78.499 6.25833 79.0907 6.225 79.474 6.225C81.774 6.225 83.4157 6.58333 84.399 7.3C85.399 8.01667 85.899 9.06667 85.899 10.45C85.899 11.6333 85.5574 12.65 84.874 13.5C84.1907 14.35 83.2574 14.8833 82.074 15.1C83.674 15.0667 84.9324 15.4417 85.849 16.225C86.7657 17.0083 87.224 18.075 87.224 19.425C87.224 21.1083 86.624 22.4833 85.424 23.55C84.2407 24.6167 82.274 25.15 79.524 25.15C78.924 25.15 78.349 25.125 77.799 25.075C76.499 25.025 75.724 25 75.474 25H72.149V23.775L74.224 23.525V7.975ZM76.874 14.625C77.1074 14.6417 77.5824 14.65 78.299 14.65H79.674C80.8407 14.65 81.724 14.325 82.324 13.675C82.924 13.025 83.224 12.1 83.224 10.9C83.224 9.73333 82.924 8.88333 82.324 8.35C81.724 7.8 80.699 7.525 79.249 7.525C78.649 7.525 78.0324 7.55833 77.399 7.625L76.874 7.675V14.625ZM76.874 23.6C77.2574 23.7333 78.124 23.8 79.474 23.8C81.1574 23.8 82.374 23.4583 83.124 22.775C83.8907 22.075 84.274 21.075 84.274 19.775C84.274 18.4917 83.9407 17.5583 83.274 16.975C82.624 16.3917 81.5657 16.1 80.099 16.1C78.399 16.1 77.324 16.1167 76.874 16.15V23.6ZM89.2383 18.025C89.2383 16.525 89.5466 15.225 90.1633 14.125C90.7799 13.025 91.5883 12.1917 92.5883 11.625C93.6049 11.0417 94.6883 10.75 95.8383 10.75C97.9383 10.75 99.5133 11.4167 100.563 12.75C101.63 14.0833 102.163 15.8333 102.163 18C102.163 19.5167 101.855 20.825 101.238 21.925C100.622 23.025 99.8049 23.8583 98.7883 24.425C97.7883 24.9917 96.7133 25.275 95.5633 25.275C93.4633 25.275 91.8799 24.6083 90.8133 23.275C89.7633 21.9417 89.2383 20.1917 89.2383 18.025ZM95.7133 23.85C96.8633 23.85 97.7466 23.375 98.3633 22.425C98.9799 21.475 99.2883 20.0667 99.2883 18.2C99.2883 16.35 99.0049 14.8833 98.4383 13.8C97.8716 12.7167 96.9633 12.175 95.7133 12.175C94.5633 12.175 93.6716 12.65 93.0383 13.6C92.4216 14.55 92.1133 15.9583 92.1133 17.825C92.1133 19.675 92.4049 21.1417 92.9883 22.225C93.5716 23.3083 94.4799 23.85 95.7133 23.85ZM93.7883 7.85L97.7883 2.875L99.6883 4.475C99.3383 5.04167 98.5883 5.81667 97.4383 6.8C96.2883 7.78333 95.3966 8.40833 94.7633 8.675L93.7883 7.85ZM107.623 21.25C108.19 21.25 108.657 21.525 109.023 22.075C109.39 22.6083 109.573 23.3417 109.573 24.275C109.573 25.225 109.423 26.1417 109.123 27.025C108.823 27.9083 108.448 28.6583 107.998 29.275C107.548 29.9083 107.107 30.35 106.673 30.6H106.648L105.798 30V29.725C106.132 29.4583 106.465 28.875 106.798 27.975C107.148 27.0917 107.323 26.25 107.323 25.45C107.323 25.2 107.273 25 107.173 24.85C107.09 24.6833 106.948 24.4917 106.748 24.275C106.515 24.025 106.34 23.7917 106.223 23.575C106.107 23.3583 106.048 23.0667 106.048 22.7C106.048 22.2667 106.182 21.9167 106.448 21.65C106.732 21.3833 107.082 21.25 107.498 21.25H107.623ZM127.08 25.275C125.247 25.275 123.68 24.8833 122.38 24.1C121.097 23.3 120.122 22.1833 119.455 20.75C118.788 19.3167 118.455 17.6333 118.455 15.7C118.455 13.8333 118.847 12.1833 119.63 10.75C120.413 9.31667 121.488 8.20833 122.855 7.425C124.222 6.625 125.755 6.225 127.455 6.225C128.738 6.225 130.28 6.425 132.08 6.825L132.905 6.975L132.655 11.475H130.98L130.355 8.3C130.122 8.1 129.713 7.93333 129.13 7.8C128.563 7.65 127.863 7.575 127.03 7.575C125.963 7.575 125.013 7.88333 124.18 8.5C123.347 9.1 122.688 9.99167 122.205 11.175C121.738 12.3583 121.505 13.775 121.505 15.425C121.505 16.9917 121.713 18.4167 122.13 19.7C122.547 20.9833 123.18 22.0083 124.03 22.775C124.88 23.525 125.93 23.9 127.18 23.9C128.063 23.9 128.738 23.825 129.205 23.675C129.688 23.525 130.097 23.3083 130.43 23.025L131.48 20.575L133.055 20.775L132.455 24.325C132.105 24.3417 131.588 24.4583 130.905 24.675C130.305 24.8583 129.722 25 129.155 25.1C128.605 25.2167 127.913 25.275 127.08 25.275ZM135.088 21.25C135.088 19.6833 135.871 18.5333 137.438 17.8C139.005 17.05 140.988 16.65 143.388 16.6V15.9C143.388 15.1167 143.305 14.5 143.138 14.05C142.971 13.6 142.68 13.275 142.263 13.075C141.863 12.8583 141.288 12.75 140.538 12.75C139.688 12.75 138.921 12.875 138.238 13.125C137.571 13.3583 136.905 13.65 136.238 14L135.613 12.7C135.83 12.5167 136.23 12.275 136.813 11.975C137.396 11.675 138.071 11.4083 138.838 11.175C139.605 10.9417 140.371 10.825 141.138 10.825C142.321 10.825 143.255 10.9917 143.938 11.325C144.638 11.6417 145.138 12.1583 145.438 12.875C145.738 13.5917 145.888 14.55 145.888 15.75V23.775H147.363V24.875C147.03 24.9583 146.605 25.0417 146.088 25.125C145.588 25.2083 145.146 25.25 144.763 25.25C144.296 25.25 143.98 25.175 143.813 25.025C143.646 24.8917 143.563 24.5833 143.563 24.1V23.275C143.063 23.775 142.446 24.2333 141.713 24.65C140.996 25.0667 140.18 25.275 139.263 25.275C138.063 25.275 137.063 24.9333 136.263 24.25C135.48 23.55 135.088 22.55 135.088 21.25ZM140.338 23.575C140.771 23.575 141.271 23.4417 141.838 23.175C142.405 22.9083 142.921 22.5917 143.388 22.225V17.925C141.571 17.925 140.196 18.2083 139.263 18.775C138.346 19.325 137.888 20.05 137.888 20.95C137.888 21.85 138.105 22.5167 138.538 22.95C138.988 23.3667 139.588 23.575 140.338 23.575ZM149.102 18.025C149.102 16.525 149.41 15.225 150.027 14.125C150.643 13.025 151.452 12.1917 152.452 11.625C153.468 11.0417 154.552 10.75 155.702 10.75C157.802 10.75 159.377 11.4167 160.427 12.75C161.493 14.0833 162.027 15.8333 162.027 18C162.027 19.5167 161.718 20.825 161.102 21.925C160.485 23.025 159.668 23.8583 158.652 24.425C157.652 24.9917 156.577 25.275 155.427 25.275C153.327 25.275 151.743 24.6083 150.677 23.275C149.627 21.9417 149.102 20.1917 149.102 18.025ZM155.577 23.85C156.727 23.85 157.61 23.375 158.227 22.425C158.843 21.475 159.152 20.0667 159.152 18.2C159.152 16.35 158.868 14.8833 158.302 13.8C157.735 12.7167 156.827 12.175 155.577 12.175C154.427 12.175 153.535 12.65 152.902 13.6C152.285 14.55 151.977 15.9583 151.977 17.825C151.977 19.675 152.268 21.1417 152.852 22.225C153.435 23.3083 154.343 23.85 155.577 23.85ZM172.344 7.975L170.294 7.675V6.425H173.669C174.236 6.425 174.952 6.39167 175.819 6.325C176.619 6.25833 177.211 6.225 177.594 6.225C179.894 6.225 181.536 6.58333 182.519 7.3C183.519 8.01667 184.019 9.06667 184.019 10.45C184.019 11.6333 183.677 12.65 182.994 13.5C182.311 14.35 181.377 14.8833 180.194 15.1C181.794 15.0667 183.052 15.4417 183.969 16.225C184.886 17.0083 185.344 18.075 185.344 19.425C185.344 21.1083 184.744 22.4833 183.544 23.55C182.361 24.6167 180.394 25.15 177.644 25.15C177.044 25.15 176.469 25.125 175.919 25.075C174.619 25.025 173.844 25 173.594 25H170.269V23.775L172.344 23.525V7.975ZM174.994 14.625C175.227 14.6417 175.702 14.65 176.419 14.65H177.794C178.961 14.65 179.844 14.325 180.444 13.675C181.044 13.025 181.344 12.1 181.344 10.9C181.344 9.73333 181.044 8.88333 180.444 8.35C179.844 7.8 178.819 7.525 177.369 7.525C176.769 7.525 176.152 7.55833 175.519 7.625L174.994 7.675V14.625ZM174.994 23.6C175.377 23.7333 176.244 23.8 177.594 23.8C179.277 23.8 180.494 23.4583 181.244 22.775C182.011 22.075 182.394 21.075 182.394 19.775C182.394 18.4917 182.061 17.5583 181.394 16.975C180.744 16.3917 179.686 16.1 178.219 16.1C176.519 16.1 175.444 16.1167 174.994 16.15V23.6ZM187.358 21.25C187.358 19.6833 188.142 18.5333 189.708 17.8C191.275 17.05 193.258 16.65 195.658 16.6V15.9C195.658 15.1167 195.575 14.5 195.408 14.05C195.242 13.6 194.95 13.275 194.533 13.075C194.133 12.8583 193.558 12.75 192.808 12.75C191.958 12.75 191.192 12.875 190.508 13.125C189.842 13.3583 189.175 13.65 188.508 14L187.883 12.7C188.1 12.5167 188.5 12.275 189.083 11.975C189.667 11.675 190.342 11.4083 191.108 11.175C191.875 10.9417 192.642 10.825 193.408 10.825C194.592 10.825 195.525 10.9917 196.208 11.325C196.908 11.6417 197.408 12.1583 197.708 12.875C198.008 13.5917 198.158 14.55 198.158 15.75V23.775H199.633V24.875C199.3 24.9583 198.875 25.0417 198.358 25.125C197.858 25.2083 197.417 25.25 197.033 25.25C196.567 25.25 196.25 25.175 196.083 25.025C195.917 24.8917 195.833 24.5833 195.833 24.1V23.275C195.333 23.775 194.717 24.2333 193.983 24.65C193.267 25.0667 192.45 25.275 191.533 25.275C190.333 25.275 189.333 24.9333 188.533 24.25C187.75 23.55 187.358 22.55 187.358 21.25ZM192.608 23.575C193.042 23.575 193.542 23.4417 194.108 23.175C194.675 22.9083 195.192 22.5917 195.658 22.225V17.925C193.842 17.925 192.467 18.2083 191.533 18.775C190.617 19.325 190.158 20.05 190.158 20.95C190.158 21.85 190.375 22.5167 190.808 22.95C191.258 23.3667 191.858 23.575 192.608 23.575ZM193.033 5C192.7 4.78333 192.133 4.325 191.333 3.625C190.533 2.90833 189.908 2.28333 189.458 1.75L190.983 0.449999L194.058 4.225L193.033 5ZM193.058 8.825C192.058 8.825 191.208 8.55833 190.508 8.025C189.825 7.475 189.483 6.725 189.483 5.775C189.483 5.475 189.5 5.26667 189.533 5.15H190.758C190.758 5.18333 190.75 5.25 190.733 5.35C190.733 5.43333 190.742 5.50833 190.758 5.575C190.858 6.575 191.625 7.075 193.058 7.075C193.808 7.075 194.35 6.95 194.683 6.7C195.033 6.45 195.242 6.075 195.308 5.575C195.342 5.40833 195.342 5.26667 195.308 5.15H196.508C196.525 5.21667 196.542 5.3 196.558 5.4C196.575 5.5 196.583 5.61667 196.583 5.75C196.583 6.7 196.233 7.45 195.533 8C194.833 8.55 194.008 8.825 193.058 8.825ZM202.872 13.05L201.072 12.6V11.25L204.647 10.8H204.722L205.247 11.25V12.3L205.222 12.9C205.822 12.3667 206.614 11.8833 207.597 11.45C208.58 11.0167 209.522 10.8 210.422 10.8C211.472 10.8 212.28 11 212.847 11.4C213.43 11.8 213.839 12.4167 214.072 13.25C214.305 14.0667 214.422 15.175 214.422 16.575V23.575L216.172 23.75V25H210.247V23.775L211.797 23.575V16.55C211.797 15.5667 211.73 14.8 211.597 14.25C211.464 13.6833 211.214 13.2667 210.847 13C210.48 12.7167 209.947 12.575 209.247 12.575C208.647 12.575 208.005 12.725 207.322 13.025C206.639 13.325 206.03 13.675 205.497 14.075V23.55L207.197 23.775V25H201.297V23.775L202.872 23.55V13.05ZM223.949 31.75C221.815 31.75 220.265 31.4083 219.299 30.725C218.349 30.0583 217.874 29.1333 217.874 27.95C217.874 27.2167 218.099 26.5417 218.549 25.925C219.015 25.3083 219.565 24.8417 220.199 24.525C219.432 24.0917 219.049 23.3917 219.049 22.425C219.049 21.825 219.224 21.2583 219.574 20.725C219.924 20.1917 220.382 19.7833 220.949 19.5C220.115 19.1333 219.474 18.6083 219.024 17.925C218.59 17.2417 218.374 16.4333 218.374 15.5C218.374 14.5333 218.64 13.6917 219.174 12.975C219.724 12.2583 220.44 11.7083 221.324 11.325C222.224 10.9417 223.174 10.75 224.174 10.75C225.857 10.75 227.174 11.1 228.124 11.8C228.374 11.55 228.757 11.3083 229.274 11.075C229.79 10.8417 230.34 10.725 230.924 10.725H231.774V12.925H229.024C229.424 13.5417 229.624 14.2583 229.624 15.075C229.624 16.0583 229.374 16.9333 228.874 17.7C228.39 18.45 227.707 19.0333 226.824 19.45C225.957 19.8667 224.974 20.075 223.874 20.075C223.157 20.075 222.515 20 221.949 19.85C221.715 20.0833 221.524 20.3417 221.374 20.625C221.224 20.9083 221.149 21.1833 221.149 21.45C221.149 22.05 221.349 22.4667 221.749 22.7C222.149 22.9167 222.865 23.025 223.899 23.025H226.724C228.34 23.025 229.54 23.3333 230.324 23.95C231.107 24.5667 231.499 25.4417 231.499 26.575C231.499 27.525 231.157 28.3917 230.474 29.175C229.79 29.975 228.865 30.6 227.699 31.05C226.549 31.5167 225.299 31.75 223.949 31.75ZM224.124 18.7C226.024 18.7 226.974 17.575 226.974 15.325C226.974 14.2083 226.724 13.3917 226.224 12.875C225.74 12.3417 225.007 12.075 224.024 12.075C223.107 12.075 222.382 12.3333 221.849 12.85C221.315 13.35 221.049 14.1583 221.049 15.275C221.049 16.325 221.299 17.1583 221.799 17.775C222.315 18.3917 223.09 18.7 224.124 18.7ZM224.174 30.3C224.99 30.3 225.757 30.175 226.474 29.925C227.207 29.6917 227.799 29.3333 228.249 28.85C228.699 28.3833 228.924 27.8333 228.924 27.2C228.924 26.45 228.724 25.9 228.324 25.55C227.924 25.2167 227.149 25.05 225.999 25.05H223.049C222.382 25.05 221.857 25.0083 221.474 24.925C220.79 25.675 220.449 26.5167 220.449 27.45C220.449 28.3833 220.732 29.0917 221.299 29.575C221.865 30.0583 222.824 30.3 224.174 30.3Z" fill="black"/>
</svg>
