<svg width="498" height="72" viewBox="0 0 498 72" fill="none" xmlns="http://www.w3.org/2000/svg">
<line x1="0.7" y1="0.9" x2="47.9" y2="36.3" stroke="#442526" stroke-linecap="round"/>
<path d="M48 36.0071L496 37.0841" stroke="#442526" stroke-linecap="round"/>
<path d="M60.2656 10.75L55.9656 10.9L55.0906 16.125H53.4406L53.8656 9.425H69.4406L69.7406 16.125H68.1656L67.3406 10.9L63.0156 10.75V26.525L66.5656 26.775V28H57.0156V26.775L60.2656 26.525V10.75ZM71.5002 26.775L73.3752 26.625V16.05L71.5752 15.6V14.25L75.0252 13.8H75.0752L75.6252 14.25V14.7L75.5502 16.65H75.6252C75.7919 16.3667 76.0919 16 76.5252 15.55C76.9585 15.1 77.5169 14.6917 78.2002 14.325C78.8835 13.9417 79.6252 13.75 80.4252 13.75C80.7585 13.75 81.0335 13.7917 81.2502 13.875V16.675C81.1335 16.5917 80.9419 16.5167 80.6752 16.45C80.4252 16.3667 80.1419 16.325 79.8252 16.325C78.4419 16.325 77.1585 16.75 75.9752 17.6V26.6L79.1502 26.8V28H71.5002V26.775ZM88.3504 28.275C86.8004 28.275 85.7004 27.8583 85.0504 27.025C84.4004 26.1917 84.0754 24.8167 84.0754 22.9V15.65L82.6754 15.25V14.15L86.1754 13.825H86.2004L86.6754 14.125V22.7C86.6754 23.6667 86.7421 24.425 86.8754 24.975C87.0254 25.5083 87.2754 25.9083 87.6254 26.175C87.9921 26.425 88.5171 26.55 89.2004 26.55C89.8671 26.55 90.4921 26.4083 91.0754 26.125C91.6587 25.8417 92.1671 25.5083 92.6004 25.125V15.65L90.8004 15.25V14.15L93.8504 13.825C94.4004 13.675 94.8421 13.425 95.1754 13.075C95.5087 12.7083 95.6754 12.15 95.6754 11.4C95.6754 11.15 95.6671 10.9833 95.6504 10.9H97.9004C97.9337 11.1667 97.9504 11.35 97.9504 11.45C97.9504 12.4167 97.7087 13.2 97.2254 13.8C96.7587 14.3833 96.0837 14.8333 95.2004 15.15V26.725H96.7004L96.6754 27.85C96.2087 27.9667 95.8004 28.0583 95.4504 28.125C95.1171 28.1917 94.7254 28.225 94.2754 28.225C93.8087 28.225 93.4587 28.1333 93.2254 27.95C93.0087 27.7667 92.9004 27.4667 92.9004 27.05V26.2C92.3504 26.75 91.6587 27.2333 90.8254 27.65C90.0087 28.0667 89.1837 28.275 88.3504 28.275ZM98.5963 21.025C98.5963 19.525 98.9046 18.225 99.5213 17.125C100.138 16.025 100.946 15.1917 101.946 14.625C102.963 14.0417 104.046 13.75 105.196 13.75C106.363 13.75 107.38 13.9667 108.246 14.4C109.013 14.2333 109.571 13.85 109.921 13.25C110.271 12.6333 110.446 12.0167 110.446 11.4C110.446 11.15 110.438 10.9833 110.421 10.9H112.646C112.68 11.1667 112.696 11.35 112.696 11.45C112.696 12.4667 112.438 13.3417 111.921 14.075C111.421 14.7917 110.73 15.3083 109.846 15.625C110.963 16.9083 111.521 18.7 111.521 21C111.521 22.5167 111.213 23.825 110.596 24.925C109.98 26.025 109.163 26.8583 108.146 27.425C107.146 27.9917 106.071 28.275 104.921 28.275C102.821 28.275 101.238 27.6083 100.171 26.275C99.1213 24.9417 98.5963 23.1917 98.5963 21.025ZM101.471 20.825C101.471 22.675 101.763 24.1417 102.346 25.225C102.93 26.3083 103.838 26.85 105.071 26.85C106.221 26.85 107.105 26.375 107.721 25.425C108.338 24.475 108.646 23.0667 108.646 21.2C108.646 19.35 108.363 17.8833 107.796 16.8C107.23 15.7167 106.321 15.175 105.071 15.175C103.921 15.175 103.03 15.65 102.396 16.6C101.78 17.55 101.471 18.9583 101.471 20.825ZM105.921 11.675C105.588 11.5417 105.071 11.2083 104.371 10.675C103.671 10.1417 102.996 9.56667 102.346 8.95C101.696 8.33333 101.263 7.84167 101.046 7.475L102.846 5.9L106.871 10.85L105.946 11.675H105.921ZM115.187 16.05L113.387 15.6V14.25L116.962 13.8H117.037L117.562 14.25V15.3L117.537 15.9C118.137 15.3667 118.928 14.8833 119.912 14.45C120.895 14.0167 121.837 13.8 122.737 13.8C123.787 13.8 124.595 14 125.162 14.4C125.745 14.8 126.153 15.4167 126.387 16.25C126.62 17.0667 126.737 18.175 126.737 19.575V26.575L128.487 26.75V28H122.562V26.775L124.112 26.575V19.55C124.112 18.5667 124.045 17.8 123.912 17.25C123.778 16.6833 123.528 16.2667 123.162 16C122.795 15.7167 122.262 15.575 121.562 15.575C120.962 15.575 120.32 15.725 119.637 16.025C118.953 16.325 118.345 16.675 117.812 17.075V26.55L119.512 26.775V28H113.612V26.775L115.187 26.55V16.05ZM136.263 34.75C134.13 34.75 132.58 34.4083 131.613 33.725C130.663 33.0583 130.188 32.1333 130.188 30.95C130.188 30.2167 130.413 29.5417 130.863 28.925C131.33 28.3083 131.88 27.8417 132.513 27.525C131.746 27.0917 131.363 26.3917 131.363 25.425C131.363 24.825 131.538 24.2583 131.888 23.725C132.238 23.1917 132.696 22.7833 133.263 22.5C132.43 22.1333 131.788 21.6083 131.338 20.925C130.905 20.2417 130.688 19.4333 130.688 18.5C130.688 17.5333 130.955 16.6917 131.488 15.975C132.038 15.2583 132.755 14.7083 133.638 14.325C134.538 13.9417 135.488 13.75 136.488 13.75C138.171 13.75 139.488 14.1 140.438 14.8C140.688 14.55 141.071 14.3083 141.588 14.075C142.105 13.8417 142.655 13.725 143.238 13.725H144.088V15.925H141.338C141.738 16.5417 141.938 17.2583 141.938 18.075C141.938 19.0583 141.688 19.9333 141.188 20.7C140.705 21.45 140.021 22.0333 139.138 22.45C138.271 22.8667 137.288 23.075 136.188 23.075C135.471 23.075 134.83 23 134.263 22.85C134.03 23.0833 133.838 23.3417 133.688 23.625C133.538 23.9083 133.463 24.1833 133.463 24.45C133.463 25.05 133.663 25.4667 134.063 25.7C134.463 25.9167 135.18 26.025 136.213 26.025H139.038C140.655 26.025 141.855 26.3333 142.638 26.95C143.421 27.5667 143.813 28.4417 143.813 29.575C143.813 30.525 143.471 31.3917 142.788 32.175C142.105 32.975 141.18 33.6 140.013 34.05C138.863 34.5167 137.613 34.75 136.263 34.75ZM136.438 21.7C138.338 21.7 139.288 20.575 139.288 18.325C139.288 17.2083 139.038 16.3917 138.538 15.875C138.055 15.3417 137.321 15.075 136.338 15.075C135.421 15.075 134.696 15.3333 134.163 15.85C133.63 16.35 133.363 17.1583 133.363 18.275C133.363 19.325 133.613 20.1583 134.113 20.775C134.63 21.3917 135.405 21.7 136.438 21.7ZM136.488 33.3C137.305 33.3 138.071 33.175 138.788 32.925C139.521 32.6917 140.113 32.3333 140.563 31.85C141.013 31.3833 141.238 30.8333 141.238 30.2C141.238 29.45 141.038 28.9 140.638 28.55C140.238 28.2167 139.463 28.05 138.313 28.05H135.363C134.696 28.05 134.171 28.0083 133.788 27.925C133.105 28.675 132.763 29.5167 132.763 30.45C132.763 31.3833 133.046 32.0917 133.613 32.575C134.18 33.0583 135.138 33.3 136.488 33.3ZM157.531 10.75L153.231 10.9L152.356 16.125H150.706L151.131 9.425H166.706L167.006 16.125H165.431L164.606 10.9L160.281 10.75V26.525L163.831 26.775V28H154.281V26.775L157.531 26.525V10.75ZM170.866 10.975L168.891 10.675V9.425H175.691V10.675L173.541 10.975V17.7H182.341V10.975L180.316 10.675V9.425H187.016V10.675L185.041 10.975V26.525L187.016 26.775V28H180.291V26.775L182.341 26.525V19.25H173.541V26.525L175.716 26.775V28H168.841V26.775L170.866 26.525V10.975ZM191.569 10.975L189.619 10.675V9.425H192.944C193.544 9.425 194.136 9.4 194.719 9.35C195.619 9.28333 196.469 9.25 197.269 9.25C199.686 9.26667 201.394 9.71667 202.394 10.6C203.394 11.4833 203.894 12.8167 203.894 14.6C203.894 15.9333 203.586 17.0917 202.969 18.075C202.352 19.0583 201.494 19.8083 200.394 20.325C199.311 20.8417 198.061 21.1 196.644 21.1C196.161 21.1 195.669 21.0917 195.169 21.075C194.669 21.0417 194.361 21.0167 194.244 21V26.5L197.669 26.775V28H189.494V26.775L191.569 26.525V10.975ZM194.244 19.625C194.711 19.7083 195.511 19.75 196.644 19.75C197.961 19.75 199.027 19.35 199.844 18.55C200.677 17.75 201.094 16.4417 201.094 14.625C201.094 13.1917 200.736 12.1667 200.019 11.55C199.302 10.9167 198.186 10.6 196.669 10.6C196.136 10.6 195.569 10.6333 194.969 10.7C194.602 10.7333 194.361 10.75 194.244 10.75V19.625ZM211.779 10.75L207.479 10.9L206.604 16.125H204.954L205.379 9.425H220.954L221.254 16.125H219.679L218.854 10.9L214.529 10.75V26.525L218.079 26.775V28H208.529V26.775L211.779 26.525V10.75ZM228.596 21.15C228.596 19.7667 228.863 18.5167 229.396 17.4C229.946 16.2833 230.746 15.4 231.796 14.75C232.863 14.0833 234.138 13.75 235.621 13.75C236.338 13.75 236.955 13.8167 237.471 13.95C237.988 14.0833 238.605 14.2667 239.321 14.5L239.221 18.35H237.596L237.046 15.8C236.946 15.3333 236.313 15.1 235.146 15.1C233.98 15.1 233.055 15.575 232.371 16.525C231.705 17.4583 231.371 18.7917 231.371 20.525C231.371 22.4917 231.746 23.9917 232.496 25.025C233.263 26.0417 234.255 26.55 235.471 26.55C236.171 26.55 236.83 26.4417 237.446 26.225C238.08 26.0083 238.621 25.75 239.071 25.45L239.546 26.45C239.096 26.9167 238.43 27.3417 237.546 27.725C236.68 28.0917 235.796 28.275 234.896 28.275C233.53 28.275 232.371 27.9667 231.421 27.35C230.488 26.7333 229.78 25.8917 229.296 24.825C228.83 23.7417 228.596 22.5167 228.596 21.15ZM243.064 9.35L240.964 9.075V8L245.039 7.525H245.089L245.639 7.9V13.7L245.539 15.825C246.072 15.3417 246.806 14.8833 247.739 14.45C248.672 14.0167 249.614 13.8 250.564 13.8C251.614 13.8 252.431 14 253.014 14.4C253.597 14.8 254.006 15.4167 254.239 16.25C254.472 17.0667 254.589 18.175 254.589 19.575V26.55L256.339 26.775V28H250.364V26.775L251.989 26.55V19.55C251.989 18.5667 251.922 17.8 251.789 17.25C251.656 16.6833 251.406 16.2667 251.039 16C250.672 15.7167 250.122 15.575 249.389 15.575C248.789 15.575 248.147 15.725 247.464 16.025C246.781 16.325 246.181 16.675 245.664 17.075V26.55L247.389 26.775V28H241.564V26.775L243.064 26.575V9.35ZM269.568 28.225C269.102 28.225 268.752 28.1333 268.518 27.95C268.302 27.7667 268.193 27.4667 268.193 27.05V26.2C267.643 26.75 266.952 27.2333 266.118 27.65C265.302 28.0667 264.477 28.275 263.643 28.275C262.093 28.275 260.993 27.8583 260.343 27.025C259.693 26.1917 259.368 24.8167 259.368 22.9V15.65L257.968 15.25V14.15L261.468 13.825H261.493L261.968 14.125V22.7C261.968 23.6667 262.035 24.425 262.168 24.975C262.318 25.5083 262.568 25.9083 262.918 26.175C263.285 26.425 263.81 26.55 264.493 26.55C265.16 26.55 265.785 26.4083 266.368 26.125C266.952 25.8417 267.46 25.5083 267.893 25.125V15.65L266.093 15.25V14.15L269.893 13.825H269.918L270.493 14.125V26.725H271.993L271.968 27.85C271.502 27.9667 271.093 28.0583 270.743 28.125C270.41 28.1917 270.018 28.225 269.568 28.225ZM276.014 34.225C275.731 34.225 275.448 34.2083 275.164 34.175C274.898 34.1417 274.706 34.0917 274.589 34.025V31.85C274.689 31.9167 274.881 31.9667 275.164 32C275.464 32.0333 275.748 32.05 276.014 32.05C276.814 32.05 277.514 31.7667 278.114 31.2C278.731 30.65 279.323 29.5833 279.889 28H278.689L273.939 15.625L272.789 15.3V14.125H278.814V15.3L276.889 15.6L279.339 22.975L280.489 26.625L281.564 22.95L283.789 15.6L282.114 15.3V14.125H287.139V15.3L285.889 15.6C283.439 23.1 281.998 27.3583 281.564 28.375C280.998 29.8083 280.481 30.925 280.014 31.725C279.548 32.5417 278.998 33.1583 278.364 33.575C277.731 34.0083 276.948 34.225 276.014 34.225ZM294.446 28.275C292.429 28.275 290.888 27.6167 289.821 26.3C288.771 24.9833 288.246 23.225 288.246 21.025C288.246 19.575 288.521 18.3 289.071 17.2C289.621 16.1 290.388 15.25 291.371 14.65C292.371 14.05 293.504 13.75 294.771 13.75C296.321 13.75 297.521 14.1833 298.371 15.05C299.238 15.9 299.696 17.125 299.746 18.725C299.746 19.7417 299.688 20.5167 299.571 21.05H290.971C291.004 22.7 291.388 24.0333 292.121 25.05C292.854 26.05 293.896 26.55 295.246 26.55C295.913 26.55 296.604 26.4333 297.321 26.2C298.054 25.95 298.621 25.6583 299.021 25.325L299.496 26.425C299.013 26.925 298.296 27.3583 297.346 27.725C296.396 28.0917 295.429 28.275 294.446 28.275ZM296.996 19.725C297.046 19.375 297.071 19.0167 297.071 18.65C297.054 17.5667 296.821 16.7167 296.371 16.1C295.938 15.4667 295.246 15.15 294.296 15.15C293.329 15.15 292.554 15.5 291.971 16.2C291.404 16.9 291.079 18.075 290.996 19.725H296.996ZM295.471 6.5L298.971 11.375L297.971 12.075L294.471 8.475L290.846 12.075L289.896 11.4L293.471 6.5H295.471ZM303.395 16.05L301.595 15.6V14.25L305.17 13.8H305.245L305.77 14.25V15.3L305.745 15.9C306.345 15.3667 307.136 14.8833 308.12 14.45C309.103 14.0167 310.045 13.8 310.945 13.8C311.995 13.8 312.803 14 313.37 14.4C313.953 14.8 314.361 15.4167 314.595 16.25C314.828 17.0667 314.945 18.175 314.945 19.575V26.575L316.695 26.75V28H310.77V26.775L312.32 26.575V19.55C312.32 18.5667 312.253 17.8 312.12 17.25C311.986 16.6833 311.736 16.2667 311.37 16C311.003 15.7167 310.47 15.575 309.77 15.575C309.17 15.575 308.528 15.725 307.845 16.025C307.161 16.325 306.553 16.675 306.02 17.075V26.55L307.72 26.775V28H301.82V26.775L303.395 26.55V16.05ZM343.529 32.95C342.779 32.95 342.07 32.825 341.404 32.575C340.737 32.325 340.129 32.0167 339.579 31.65C339.045 31.3 338.404 30.8333 337.654 30.25C336.837 29.6167 336.145 29.125 335.579 28.775C335.029 28.425 334.462 28.1917 333.879 28.075C333.262 28.2083 332.662 28.275 332.079 28.275C330.395 28.275 328.962 27.8833 327.779 27.1C326.595 26.3167 325.704 25.2167 325.104 23.8C324.504 22.3667 324.204 20.7083 324.204 18.825C324.204 16.9083 324.562 15.225 325.279 13.775C326.012 12.325 327.012 11.2083 328.279 10.425C329.545 9.625 330.979 9.225 332.579 9.225C335.179 9.225 337.162 10.05 338.529 11.7C339.895 13.3333 340.579 15.6 340.579 18.5C340.579 20.65 340.129 22.5083 339.229 24.075C338.345 25.6417 337.145 26.7833 335.629 27.5C336.379 27.5667 337.104 27.75 337.804 28.05C338.504 28.35 339.329 28.775 340.279 29.325C341.329 29.8917 342.179 30.3083 342.829 30.575C343.479 30.8417 344.145 30.975 344.829 30.975C345.112 30.975 345.37 30.9583 345.604 30.925L345.904 32C345.604 32.3167 345.245 32.55 344.829 32.7C344.412 32.8667 343.979 32.95 343.529 32.95ZM332.354 26.95C333.97 26.95 335.245 26.2333 336.179 24.8C337.112 23.35 337.579 21.2583 337.579 18.525C337.579 16.0083 337.129 14.05 336.229 12.65C335.329 11.2333 334.062 10.525 332.429 10.525C330.812 10.525 329.529 11.225 328.579 12.625C327.645 14.025 327.179 16.0917 327.179 18.825C327.179 21.325 327.629 23.3083 328.529 24.775C329.445 26.225 330.72 26.95 332.354 26.95ZM353.968 28.225C353.501 28.225 353.151 28.1333 352.918 27.95C352.701 27.7667 352.593 27.4667 352.593 27.05V26.2C352.043 26.75 351.351 27.2333 350.518 27.65C349.701 28.0667 348.876 28.275 348.043 28.275C346.493 28.275 345.393 27.8583 344.743 27.025C344.093 26.1917 343.768 24.8167 343.768 22.9V15.65L342.368 15.25V14.15L345.868 13.825H345.893L346.368 14.125V22.7C346.368 23.6667 346.434 24.425 346.568 24.975C346.718 25.5083 346.968 25.9083 347.318 26.175C347.684 26.425 348.209 26.55 348.893 26.55C349.559 26.55 350.184 26.4083 350.768 26.125C351.351 25.8417 351.859 25.5083 352.293 25.125V15.65L350.493 15.25V14.15L354.293 13.825H354.318L354.893 14.125V26.725H356.393L356.368 27.85C355.901 27.9667 355.493 28.0583 355.143 28.125C354.809 28.1917 354.418 28.225 353.968 28.225ZM358.389 21.025C358.389 19.525 358.697 18.225 359.314 17.125C359.93 16.025 360.739 15.1917 361.739 14.625C362.755 14.0417 363.839 13.75 364.989 13.75C367.089 13.75 368.664 14.4167 369.714 15.75C370.78 17.0833 371.314 18.8333 371.314 21C371.314 22.5167 371.005 23.825 370.389 24.925C369.772 26.025 368.955 26.8583 367.939 27.425C366.939 27.9917 365.864 28.275 364.714 28.275C362.614 28.275 361.03 27.6083 359.964 26.275C358.914 24.9417 358.389 23.1917 358.389 21.025ZM364.864 26.85C366.014 26.85 366.897 26.375 367.514 25.425C368.13 24.475 368.439 23.0667 368.439 21.2C368.439 19.35 368.155 17.8833 367.589 16.8C367.022 15.7167 366.114 15.175 364.864 15.175C363.714 15.175 362.822 15.65 362.189 16.6C361.572 17.55 361.264 18.9583 361.264 20.825C361.264 22.675 361.555 24.1417 362.139 25.225C362.722 26.3083 363.63 26.85 364.864 26.85ZM367.839 7.55L371.189 3.5L372.764 4.85C372.43 5.31667 371.789 5.96667 370.839 6.8C369.889 7.61667 369.164 8.13333 368.664 8.35L367.839 7.55ZM365.814 7.475L369.014 11.275L368.064 11.875L364.914 9.2L361.614 11.875L360.764 11.3L364.014 7.475H365.814ZM373.299 21.15C373.299 19.7667 373.565 18.5167 374.099 17.4C374.649 16.2833 375.449 15.4 376.499 14.75C377.565 14.0833 378.84 13.75 380.324 13.75C381.04 13.75 381.657 13.8167 382.174 13.95C382.69 14.0833 383.307 14.2667 384.024 14.5L383.924 18.35H382.299L381.749 15.8C381.649 15.3333 381.015 15.1 379.849 15.1C378.682 15.1 377.757 15.575 377.074 16.525C376.407 17.4583 376.074 18.7917 376.074 20.525C376.074 22.4917 376.449 23.9917 377.199 25.025C377.965 26.0417 378.957 26.55 380.174 26.55C380.874 26.55 381.532 26.4417 382.149 26.225C382.782 26.0083 383.324 25.75 383.774 25.45L384.249 26.45C383.799 26.9167 383.132 27.3417 382.249 27.725C381.382 28.0917 380.499 28.275 379.599 28.275C378.232 28.275 377.074 27.9667 376.124 27.35C375.19 26.7333 374.482 25.8917 373.999 24.825C373.532 23.7417 373.299 22.5167 373.299 21.15ZM394.499 10.975L392.524 10.675V9.425H399.324V10.675L397.174 10.975V17.7H405.974V10.975L403.949 10.675V9.425H410.649V10.675L408.674 10.975V26.525L410.649 26.775V28H403.924V26.775L405.974 26.525V19.25H397.174V26.525L399.349 26.775V28H392.474V26.775L394.499 26.525V10.975ZM413.052 21.025C413.052 19.525 413.36 18.225 413.977 17.125C414.593 16.025 415.402 15.1917 416.402 14.625C417.418 14.0417 418.502 13.75 419.652 13.75C421.752 13.75 423.327 14.4167 424.377 15.75C425.443 17.0833 425.977 18.8333 425.977 21C425.977 22.5167 425.668 23.825 425.052 24.925C424.435 26.025 423.618 26.8583 422.602 27.425C421.602 27.9917 420.527 28.275 419.377 28.275C417.277 28.275 415.693 27.6083 414.627 26.275C413.577 24.9417 413.052 23.1917 413.052 21.025ZM419.527 26.85C420.677 26.85 421.56 26.375 422.177 25.425C422.793 24.475 423.102 23.0667 423.102 21.2C423.102 19.35 422.818 17.8833 422.252 16.8C421.685 15.7167 420.777 15.175 419.527 15.175C418.377 15.175 417.485 15.65 416.852 16.6C416.235 17.55 415.927 18.9583 415.927 20.825C415.927 22.675 416.218 24.1417 416.802 25.225C417.385 26.3083 418.293 26.85 419.527 26.85ZM419.352 33.1C418.902 33.1 418.535 32.9417 418.252 32.625C417.985 32.325 417.852 31.9417 417.852 31.475C417.852 30.9417 418.002 30.4917 418.302 30.125C418.618 29.7583 419.052 29.575 419.602 29.575C420.102 29.575 420.493 29.7333 420.777 30.05C421.06 30.3667 421.202 30.75 421.202 31.2C421.202 31.75 421.043 32.2 420.727 32.55C420.41 32.9167 419.96 33.1 419.377 33.1H419.352ZM427.962 21.15C427.962 19.7667 428.228 18.5167 428.762 17.4C429.312 16.2833 430.112 15.4 431.162 14.75C432.228 14.0833 433.503 13.75 434.987 13.75C435.703 13.75 436.32 13.8167 436.837 13.95C437.353 14.0833 437.97 14.2667 438.687 14.5L438.587 18.35H436.962L436.412 15.8C436.312 15.3333 435.678 15.1 434.512 15.1C433.345 15.1 432.42 15.575 431.737 16.525C431.07 17.4583 430.737 18.7917 430.737 20.525C430.737 22.4917 431.112 23.9917 431.862 25.025C432.628 26.0417 433.62 26.55 434.837 26.55C435.537 26.55 436.195 26.4417 436.812 26.225C437.445 26.0083 437.987 25.75 438.437 25.45L438.912 26.45C438.462 26.9167 437.795 27.3417 436.912 27.725C436.045 28.0917 435.162 28.275 434.262 28.275C432.895 28.275 431.737 27.9667 430.787 27.35C429.853 26.7333 429.145 25.8917 428.662 24.825C428.195 23.7417 427.962 22.5167 427.962 21.15ZM449.162 10.975L447.187 10.675V9.425H453.987V10.675L451.837 10.975V17.7H460.637V10.975L458.612 10.675V9.425H465.312V10.675L463.337 10.975V26.525L465.312 26.775V28H458.587V26.775L460.637 26.525V19.25H451.837V26.525L454.012 26.775V28H447.137V26.775L449.162 26.525V10.975ZM479.09 28.225C478.623 28.225 478.273 28.1333 478.04 27.95C477.823 27.7667 477.715 27.4667 477.715 27.05V26.2C477.165 26.75 476.473 27.2333 475.64 27.65C474.823 28.0667 473.998 28.275 473.165 28.275C471.615 28.275 470.515 27.8583 469.865 27.025C469.215 26.1917 468.89 24.8167 468.89 22.9V15.65L467.49 15.25V14.15L470.99 13.825H471.015L471.49 14.125V22.7C471.49 23.6667 471.557 24.425 471.69 24.975C471.84 25.5083 472.09 25.9083 472.44 26.175C472.807 26.425 473.332 26.55 474.015 26.55C474.682 26.55 475.307 26.4083 475.89 26.125C476.473 25.8417 476.982 25.5083 477.415 25.125V15.65L475.615 15.25V14.15L479.415 13.825H479.44L480.015 14.125V26.725H481.515L481.49 27.85C481.023 27.9667 480.615 28.0583 480.265 28.125C479.932 28.1917 479.54 28.225 479.09 28.225ZM489.661 28.275C487.644 28.275 486.102 27.6167 485.036 26.3C483.986 24.9833 483.461 23.225 483.461 21.025C483.461 19.575 483.736 18.3 484.286 17.2C484.836 16.1 485.602 15.25 486.586 14.65C487.586 14.05 488.719 13.75 489.986 13.75C491.536 13.75 492.736 14.1833 493.586 15.05C494.452 15.9 494.911 17.125 494.961 18.725C494.961 19.7417 494.902 20.5167 494.786 21.05H486.186C486.219 22.7 486.602 24.0333 487.336 25.05C488.069 26.05 489.111 26.55 490.461 26.55C491.127 26.55 491.819 26.4333 492.536 26.2C493.269 25.95 493.836 25.6583 494.236 25.325L494.711 26.425C494.227 26.925 493.511 27.3583 492.561 27.725C491.611 28.0917 490.644 28.275 489.661 28.275ZM492.211 19.725C492.261 19.375 492.286 19.0167 492.286 18.65C492.269 17.5667 492.036 16.7167 491.586 16.1C491.152 15.4667 490.461 15.15 489.511 15.15C488.544 15.15 487.769 15.5 487.186 16.2C486.619 16.9 486.294 18.075 486.211 19.725H492.211ZM492.636 7.55L495.986 3.5L497.561 4.85C497.227 5.31667 496.586 5.96667 495.636 6.8C494.686 7.61667 493.961 8.13333 493.461 8.35L492.636 7.55ZM490.611 7.475L493.811 11.275L492.861 11.875L489.711 9.2L486.411 11.875L485.561 11.3L488.811 7.475H490.611ZM171.997 45.75L167.697 45.9L166.822 51.125H165.172L165.597 44.425H181.172L181.472 51.125H179.897L179.072 45.9L174.747 45.75V61.525L178.297 61.775V63H168.747V61.775L171.997 61.525V45.75ZM184.531 44.35L182.431 44.075V43L186.506 42.525H186.556L187.106 42.9V48.7L187.006 50.825C187.539 50.3417 188.273 49.8833 189.206 49.45C190.139 49.0167 191.081 48.8 192.031 48.8C193.081 48.8 193.898 49 194.481 49.4C195.064 49.8 195.473 50.4167 195.706 51.25C195.939 52.0667 196.056 53.175 196.056 54.575V61.55L197.806 61.775V63H191.831V61.775L193.456 61.55V54.55C193.456 53.5667 193.389 52.8 193.256 52.25C193.123 51.6833 192.873 51.2667 192.506 51C192.139 50.7167 191.589 50.575 190.856 50.575C190.256 50.575 189.614 50.725 188.931 51.025C188.248 51.325 187.648 51.675 187.131 52.075V61.55L188.856 61.775V63H183.031V61.775L184.531 61.575V44.35ZM205.111 63.275C203.561 63.275 202.461 62.8583 201.811 62.025C201.161 61.1917 200.836 59.8167 200.836 57.9V50.65L199.436 50.25V49.15L202.936 48.825H202.961L203.436 49.125V57.7C203.436 58.6667 203.502 59.425 203.636 59.975C203.786 60.5083 204.036 60.9083 204.386 61.175C204.752 61.425 205.277 61.55 205.961 61.55C206.627 61.55 207.252 61.4083 207.836 61.125C208.419 60.8417 208.927 60.5083 209.361 60.125V50.65L207.561 50.25V49.15L210.611 48.825C211.161 48.675 211.602 48.425 211.936 48.075C212.269 47.7083 212.436 47.15 212.436 46.4C212.436 46.15 212.427 45.9833 212.411 45.9H214.661C214.694 46.1667 214.711 46.35 214.711 46.45C214.711 47.4167 214.469 48.2 213.986 48.8C213.519 49.3833 212.844 49.8333 211.961 50.15V61.725H213.461L213.436 62.85C212.969 62.9667 212.561 63.0583 212.211 63.125C211.877 63.1917 211.486 63.225 211.036 63.225C210.569 63.225 210.219 63.1333 209.986 62.95C209.769 62.7667 209.661 62.4667 209.661 62.05V61.2C209.111 61.75 208.419 62.2333 207.586 62.65C206.769 63.0667 205.944 63.275 205.111 63.275ZM206.836 46.675C206.502 46.5417 205.986 46.2083 205.286 45.675C204.586 45.1417 203.911 44.5667 203.261 43.95C202.611 43.3333 202.177 42.8417 201.961 42.475L203.761 40.9L207.786 45.85L206.861 46.675H206.836ZM215.457 59.25C215.457 57.6833 216.24 56.5333 217.807 55.8C219.373 55.05 221.357 54.65 223.757 54.6V53.9C223.757 53.1167 223.673 52.5 223.507 52.05C223.34 51.6 223.048 51.275 222.632 51.075C222.232 50.8583 221.657 50.75 220.907 50.75C220.057 50.75 219.29 50.875 218.607 51.125C217.94 51.3583 217.273 51.65 216.607 52L215.982 50.7C216.198 50.5167 216.598 50.275 217.182 49.975C217.765 49.675 218.44 49.4083 219.207 49.175C219.973 48.9417 220.74 48.825 221.507 48.825C222.69 48.825 223.623 48.9917 224.307 49.325C225.007 49.6417 225.507 50.1583 225.807 50.875C226.107 51.5917 226.257 52.55 226.257 53.75V61.775H227.732V62.875C227.398 62.9583 226.973 63.0417 226.457 63.125C225.957 63.2083 225.515 63.25 225.132 63.25C224.665 63.25 224.348 63.175 224.182 63.025C224.015 62.8917 223.932 62.5833 223.932 62.1V61.275C223.432 61.775 222.815 62.2333 222.082 62.65C221.365 63.0667 220.548 63.275 219.632 63.275C218.432 63.275 217.432 62.9333 216.632 62.25C215.848 61.55 215.457 60.55 215.457 59.25ZM220.707 61.575C221.14 61.575 221.64 61.4417 222.207 61.175C222.773 60.9083 223.29 60.5917 223.757 60.225V55.925C221.94 55.925 220.565 56.2083 219.632 56.775C218.715 57.325 218.257 58.05 218.257 58.95C218.257 59.85 218.473 60.5167 218.907 60.95C219.357 61.3667 219.957 61.575 220.707 61.575ZM241.528 45.75L237.228 45.9L236.353 51.125H234.703L235.128 44.425H250.703L251.003 51.125H249.428L248.603 45.9L244.278 45.75V61.525L247.828 61.775V63H238.278V61.775L241.528 61.525V45.75ZM254.062 44.35L251.962 44.075V43L256.037 42.525H256.087L256.637 42.9V48.7L256.537 50.825C257.071 50.3417 257.804 49.8833 258.737 49.45C259.671 49.0167 260.612 48.8 261.562 48.8C262.612 48.8 263.429 49 264.012 49.4C264.596 49.8 265.004 50.4167 265.237 51.25C265.471 52.0667 265.587 53.175 265.587 54.575V61.55L267.337 61.775V63H261.362V61.775L262.987 61.55V54.55C262.987 53.5667 262.921 52.8 262.787 52.25C262.654 51.6833 262.404 51.2667 262.037 51C261.671 50.7167 261.121 50.575 260.387 50.575C259.787 50.575 259.146 50.725 258.462 51.025C257.779 51.325 257.179 51.675 256.662 52.075V61.55L258.387 61.775V63H252.562V61.775L254.062 61.575V44.35ZM272.142 46.625C271.609 46.625 271.209 46.475 270.942 46.175C270.675 45.875 270.542 45.4917 270.542 45.025C270.542 44.4917 270.7 44.05 271.017 43.7C271.35 43.35 271.8 43.175 272.367 43.175C272.934 43.175 273.35 43.325 273.617 43.625C273.884 43.925 274.017 44.3083 274.017 44.775C274.017 45.3417 273.85 45.7917 273.517 46.125C273.2 46.4583 272.75 46.625 272.167 46.625H272.142ZM271.142 51.05L269.242 50.6V49.275L273.117 48.8H273.167L273.742 49.25V61.575L275.742 61.775V63H269.117V61.775L271.142 61.55V51.05ZM283.667 63.275C281.65 63.275 280.109 62.6167 279.042 61.3C277.992 59.9833 277.467 58.225 277.467 56.025C277.467 54.575 277.742 53.3 278.292 52.2C278.842 51.1 279.609 50.25 280.592 49.65C281.592 49.05 282.725 48.75 283.992 48.75C285.542 48.75 286.742 49.1833 287.592 50.05C288.459 50.9 288.917 52.125 288.967 53.725C288.967 54.7417 288.909 55.5167 288.792 56.05H280.192C280.225 57.7 280.609 59.0333 281.342 60.05C282.075 61.05 283.117 61.55 284.467 61.55C285.134 61.55 285.825 61.4333 286.542 61.2C287.275 60.95 287.842 60.6583 288.242 60.325L288.717 61.425C288.234 61.925 287.517 62.3583 286.567 62.725C285.617 63.0917 284.65 63.275 283.667 63.275ZM286.217 54.725C286.267 54.375 286.292 54.0167 286.292 53.65C286.275 52.5667 286.042 51.7167 285.592 51.1C285.159 50.4667 284.467 50.15 283.517 50.15C282.55 50.15 281.775 50.5 281.192 51.2C280.625 51.9 280.3 53.075 280.217 54.725H286.217ZM284.692 41.5L288.192 46.375L287.192 47.075L283.692 43.475L280.067 47.075L279.117 46.4L282.692 41.5H284.692ZM292.616 51.05L290.816 50.6V49.25L294.391 48.8H294.466L294.991 49.25V50.3L294.966 50.9C295.566 50.3667 296.357 49.8833 297.341 49.45C298.324 49.0167 299.266 48.8 300.166 48.8C301.216 48.8 302.024 49 302.591 49.4C303.174 49.8 303.582 50.4167 303.816 51.25C304.049 52.0667 304.166 53.175 304.166 54.575V61.575L305.916 61.75V63H299.991V61.775L301.541 61.575V54.55C301.541 53.5667 301.474 52.8 301.341 52.25C301.207 51.6833 300.957 51.2667 300.591 51C300.224 50.7167 299.691 50.575 298.991 50.575C298.391 50.575 297.749 50.725 297.066 51.025C296.382 51.325 295.774 51.675 295.241 52.075V61.55L296.941 61.775V63H291.041V61.775L292.616 61.55V51.05ZM325.425 55.9H315.325V54.075H325.425V55.9ZM337.431 45.975L335.456 45.675V44.425H342.256V45.675L340.106 45.975V52.7H348.906V45.975L346.881 45.675V44.425H353.581V45.675L351.606 45.975V61.525L353.581 61.775V63H346.856V61.775L348.906 61.525V54.25H340.106V61.525L342.281 61.775V63H335.406V61.775L337.431 61.525V45.975ZM367.359 63.225C366.892 63.225 366.542 63.1333 366.309 62.95C366.092 62.7667 365.984 62.4667 365.984 62.05V61.2C365.434 61.75 364.742 62.2333 363.909 62.65C363.092 63.0667 362.267 63.275 361.434 63.275C359.884 63.275 358.784 62.8583 358.134 62.025C357.484 61.1917 357.159 59.8167 357.159 57.9V50.65L355.759 50.25V49.15L359.259 48.825H359.284L359.759 49.125V57.7C359.759 58.6667 359.826 59.425 359.959 59.975C360.109 60.5083 360.359 60.9083 360.709 61.175C361.076 61.425 361.601 61.55 362.284 61.55C362.951 61.55 363.576 61.4083 364.159 61.125C364.742 60.8417 365.251 60.5083 365.684 60.125V50.65L363.884 50.25V49.15L367.684 48.825H367.709L368.284 49.125V61.725H369.784L369.759 62.85C369.292 62.9667 368.884 63.0583 368.534 63.125C368.201 63.1917 367.809 63.225 367.359 63.225ZM377.93 63.275C375.913 63.275 374.371 62.6167 373.305 61.3C372.255 59.9833 371.73 58.225 371.73 56.025C371.73 54.575 372.005 53.3 372.555 52.2C373.105 51.1 373.871 50.25 374.855 49.65C375.855 49.05 376.988 48.75 378.255 48.75C379.805 48.75 381.005 49.1833 381.855 50.05C382.721 50.9 383.18 52.125 383.23 53.725C383.23 54.7417 383.171 55.5167 383.055 56.05H374.455C374.488 57.7 374.871 59.0333 375.605 60.05C376.338 61.05 377.38 61.55 378.73 61.55C379.396 61.55 380.088 61.4333 380.805 61.2C381.538 60.95 382.105 60.6583 382.505 60.325L382.98 61.425C382.496 61.925 381.78 62.3583 380.83 62.725C379.88 63.0917 378.913 63.275 377.93 63.275ZM380.48 54.725C380.53 54.375 380.555 54.0167 380.555 53.65C380.538 52.5667 380.305 51.7167 379.855 51.1C379.421 50.4667 378.73 50.15 377.78 50.15C376.813 50.15 376.038 50.5 375.455 51.2C374.888 51.9 374.563 53.075 374.48 54.725H380.48ZM380.905 42.55L384.255 38.5L385.83 39.85C385.496 40.3167 384.855 40.9667 383.905 41.8C382.955 42.6167 382.23 43.1333 381.73 43.35L380.905 42.55ZM378.88 42.475L382.08 46.275L381.13 46.875L377.98 44.2L374.68 46.875L373.83 46.3L377.08 42.475H378.88Z" fill="black"/>
</svg>
