<svg width="306" height="58" viewBox="0 0 306 58" fill="none" xmlns="http://www.w3.org/2000/svg">
<line x1="305.593" y1="57.2906" x2="290.593" y2="36.2906" stroke="#442526"/>
<line x1="291" y1="36.5" y2="36.5" stroke="#442526"/>
<path d="M9.25 6.75L4.95 6.9L4.075 12.125H2.425L2.85 5.425H18.425L18.725 12.125H17.15L16.325 6.9L12 6.75V22.525L15.55 22.775V24H6V22.775L9.25 22.525V6.75ZM20.4346 20.25C20.4346 18.6833 21.2179 17.5333 22.7846 16.8C24.3512 16.05 26.3346 15.65 28.7346 15.6V14.9C28.7346 14.1167 28.6512 13.5 28.4846 13.05C28.3179 12.6 28.0262 12.275 27.6096 12.075C27.2096 11.8583 26.6346 11.75 25.8846 11.75C25.0346 11.75 24.2679 11.875 23.5846 12.125C22.9179 12.3583 22.2512 12.65 21.5846 13L20.9596 11.7C21.1762 11.5167 21.5762 11.275 22.1596 10.975C22.7429 10.675 23.4179 10.4083 24.1846 10.175C24.9512 9.94167 25.7179 9.825 26.4846 9.825C27.6679 9.825 28.6012 9.99167 29.2846 10.325C29.9846 10.6417 30.4846 11.1583 30.7846 11.875C31.0846 12.5917 31.2346 13.55 31.2346 14.75V22.775H32.7096V23.875C32.3762 23.9583 31.9512 24.0417 31.4346 24.125C30.9346 24.2083 30.4929 24.25 30.1096 24.25C29.6429 24.25 29.3262 24.175 29.1596 24.025C28.9929 23.8917 28.9096 23.5833 28.9096 23.1V22.275C28.4096 22.775 27.7929 23.2333 27.0596 23.65C26.3429 24.0667 25.5262 24.275 24.6096 24.275C23.4096 24.275 22.4096 23.9333 21.6096 23.25C20.8262 22.55 20.4346 21.55 20.4346 20.25ZM25.6846 22.575C26.1179 22.575 26.6179 22.4417 27.1846 22.175C27.7512 21.9083 28.2679 21.5917 28.7346 21.225V16.925C26.9179 16.925 25.5429 17.2083 24.6096 17.775C23.6929 18.325 23.2346 19.05 23.2346 19.95C23.2346 20.85 23.4512 21.5167 23.8846 21.95C24.3346 22.3667 24.9346 22.575 25.6846 22.575ZM27.1346 2.5L30.6346 7.375L29.6346 8.075L26.1346 4.475L22.5096 8.075L21.5596 7.4L25.1346 2.5H27.1346ZM35.9482 12.05L34.1482 11.6V10.25L37.7232 9.8H37.7982L38.3232 10.25V11.3L38.2982 11.9C38.8982 11.3667 39.6899 10.8833 40.6732 10.45C41.6566 10.0167 42.5982 9.8 43.4982 9.8C44.5482 9.8 45.3566 10 45.9232 10.4C46.5066 10.8 46.9149 11.4167 47.1482 12.25C47.3816 13.0667 47.4982 14.175 47.4982 15.575V22.575L49.2482 22.75V24H43.3232V22.775L44.8732 22.575V15.55C44.8732 14.5667 44.8066 13.8 44.6732 13.25C44.5399 12.6833 44.2899 12.2667 43.9232 12C43.5566 11.7167 43.0232 11.575 42.3232 11.575C41.7232 11.575 41.0816 11.725 40.3982 12.025C39.7149 12.325 39.1066 12.675 38.5732 13.075V22.55L40.2732 22.775V24H34.3732V22.775L35.9482 22.55V12.05ZM63.1074 6.75L58.8074 6.9L57.9324 12.125H56.2824L56.7074 5.425H72.2824L72.5824 12.125H71.0074L70.1824 6.9L65.8574 6.75V22.525L69.4074 22.775V24H59.8574V22.775L63.1074 22.525V6.75ZM74.342 22.775L76.217 22.625V12.05L74.417 11.6V10.25L77.867 9.8H77.917L78.467 10.25V10.7L78.392 12.65H78.467C78.6337 12.3667 78.9337 12 79.367 11.55C79.8003 11.1 80.3587 10.6917 81.042 10.325C81.7253 9.94167 82.467 9.75 83.267 9.75C83.6003 9.75 83.8753 9.79167 84.092 9.875V12.675C83.9753 12.5917 83.7837 12.5167 83.517 12.45C83.267 12.3667 82.9837 12.325 82.667 12.325C81.2837 12.325 80.0003 12.75 78.817 13.6V22.6L81.992 22.8V24H74.342V22.775ZM85.7422 20.25C85.7422 18.6833 86.5255 17.5333 88.0922 16.8C89.6589 16.05 91.6422 15.65 94.0422 15.6V14.9C94.0422 14.1167 93.9589 13.5 93.7922 13.05C93.6255 12.6 93.3339 12.275 92.9172 12.075C92.5172 11.8583 91.9422 11.75 91.1922 11.75C90.3422 11.75 89.5755 11.875 88.8922 12.125C88.2255 12.3583 87.5589 12.65 86.8922 13L86.2672 11.7C86.4839 11.5167 86.8839 11.275 87.4672 10.975C88.0505 10.675 88.7255 10.4083 89.4922 10.175C90.2589 9.94167 91.0255 9.825 91.7922 9.825C92.9755 9.825 93.9089 9.99167 94.5922 10.325C95.2922 10.6417 95.7922 11.1583 96.0922 11.875C96.3922 12.5917 96.5422 13.55 96.5422 14.75V22.775H98.0172V23.875C97.6839 23.9583 97.2589 24.0417 96.7422 24.125C96.2422 24.2083 95.8005 24.25 95.4172 24.25C94.9505 24.25 94.6339 24.175 94.4672 24.025C94.3005 23.8917 94.2172 23.5833 94.2172 23.1V22.275C93.7172 22.775 93.1005 23.2333 92.3672 23.65C91.6505 24.0667 90.8339 24.275 89.9172 24.275C88.7172 24.275 87.7172 23.9333 86.9172 23.25C86.1339 22.55 85.7422 21.55 85.7422 20.25ZM90.9922 22.575C91.4255 22.575 91.9255 22.4417 92.4922 22.175C93.0589 21.9083 93.5755 21.5917 94.0422 21.225V16.925C92.2255 16.925 90.8505 17.2083 89.9172 17.775C89.0005 18.325 88.5422 19.05 88.5422 19.95C88.5422 20.85 88.7589 21.5167 89.1922 21.95C89.6422 22.3667 90.2422 22.575 90.9922 22.575ZM92.1672 7.675C91.8339 7.54167 91.3172 7.20833 90.6172 6.675C89.9172 6.14167 89.2422 5.56667 88.5922 4.95C87.9422 4.33333 87.5089 3.84167 87.2922 3.475L89.0922 1.9L93.1172 6.85L92.1922 7.675H92.1672ZM99.7559 17.025C99.7559 15.525 100.064 14.225 100.681 13.125C101.298 12.025 102.106 11.1917 103.106 10.625C104.123 10.0417 105.206 9.75 106.356 9.75C108.456 9.75 110.031 10.4167 111.081 11.75C112.148 13.0833 112.681 14.8333 112.681 17C112.681 18.5167 112.373 19.825 111.756 20.925C111.139 22.025 110.323 22.8583 109.306 23.425C108.306 23.9917 107.231 24.275 106.081 24.275C103.981 24.275 102.398 23.6083 101.331 22.275C100.281 20.9417 99.7559 19.1917 99.7559 17.025ZM106.231 22.85C107.381 22.85 108.264 22.375 108.881 21.425C109.498 20.475 109.806 19.0667 109.806 17.2C109.806 15.35 109.523 13.8833 108.956 12.8C108.389 11.7167 107.481 11.175 106.231 11.175C105.081 11.175 104.189 11.65 103.556 12.6C102.939 13.55 102.631 14.9583 102.631 16.825C102.631 18.675 102.923 20.1417 103.506 21.225C104.089 22.3083 104.998 22.85 106.231 22.85ZM118.141 20.25C118.707 20.25 119.174 20.525 119.541 21.075C119.907 21.6083 120.091 22.3417 120.091 23.275C120.091 24.225 119.941 25.1417 119.641 26.025C119.341 26.9083 118.966 27.6583 118.516 28.275C118.066 28.9083 117.624 29.35 117.191 29.6H117.166L116.316 29V28.725C116.649 28.4583 116.982 27.875 117.316 26.975C117.666 26.0917 117.841 25.25 117.841 24.45C117.841 24.2 117.791 24 117.691 23.85C117.607 23.6833 117.466 23.4917 117.266 23.275C117.032 23.025 116.857 22.7917 116.741 22.575C116.624 22.3583 116.566 22.0667 116.566 21.7C116.566 21.2667 116.699 20.9167 116.966 20.65C117.249 20.3833 117.599 20.25 118.016 20.25H118.141ZM135.397 6.75L131.097 6.9L130.222 12.125H128.572L128.997 5.425H144.572L144.872 12.125H143.297L142.472 6.9L138.147 6.75V22.525L141.697 22.775V24H132.147V22.775L135.397 22.525V6.75ZM157.957 24.225C157.49 24.225 157.14 24.1333 156.907 23.95C156.69 23.7667 156.582 23.4667 156.582 23.05V22.2C156.032 22.75 155.34 23.2333 154.507 23.65C153.69 24.0667 152.865 24.275 152.032 24.275C150.482 24.275 149.382 23.8583 148.732 23.025C148.082 22.1917 147.757 20.8167 147.757 18.9V11.65L146.357 11.25V10.15L149.857 9.825H149.882L150.357 10.125V18.7C150.357 19.6667 150.424 20.425 150.557 20.975C150.707 21.5083 150.957 21.9083 151.307 22.175C151.674 22.425 152.199 22.55 152.882 22.55C153.549 22.55 154.174 22.4083 154.757 22.125C155.34 21.8417 155.849 21.5083 156.282 21.125V11.65L154.482 11.25V10.15L158.282 9.825H158.307L158.882 10.125V22.725H160.382L160.357 23.85C159.89 23.9667 159.482 24.0583 159.132 24.125C158.799 24.1917 158.407 24.225 157.957 24.225ZM164.403 30.225C164.12 30.225 163.836 30.2083 163.553 30.175C163.286 30.1417 163.095 30.0917 162.978 30.025V27.85C163.078 27.9167 163.27 27.9667 163.553 28C163.853 28.0333 164.136 28.05 164.403 28.05C165.203 28.05 165.903 27.7667 166.503 27.2C167.12 26.65 167.711 25.5833 168.278 24H167.078L162.328 11.625L161.178 11.3V10.125H167.203V11.3L165.278 11.6L167.728 18.975L168.878 22.625L169.953 18.95L172.178 11.6L170.503 11.3V10.125H175.528V11.3L174.278 11.6C171.828 19.1 170.386 23.3583 169.953 24.375C169.386 25.8083 168.87 26.925 168.403 27.725C167.936 28.5417 167.386 29.1583 166.753 29.575C166.12 30.0083 165.336 30.225 164.403 30.225ZM182.835 24.275C180.818 24.275 179.276 23.6167 178.21 22.3C177.16 20.9833 176.635 19.225 176.635 17.025C176.635 15.575 176.91 14.3 177.46 13.2C178.01 12.1 178.776 11.25 179.76 10.65C180.76 10.05 181.893 9.75 183.16 9.75C184.71 9.75 185.91 10.1833 186.76 11.05C187.626 11.9 188.085 13.125 188.135 14.725C188.135 15.7417 188.076 16.5167 187.96 17.05H179.36C179.393 18.7 179.776 20.0333 180.51 21.05C181.243 22.05 182.285 22.55 183.635 22.55C184.301 22.55 184.993 22.4333 185.71 22.2C186.443 21.95 187.01 21.6583 187.41 21.325L187.885 22.425C187.401 22.925 186.685 23.3583 185.735 23.725C184.785 24.0917 183.818 24.275 182.835 24.275ZM185.385 15.725C185.435 15.375 185.46 15.0167 185.46 14.65C185.443 13.5667 185.21 12.7167 184.76 12.1C184.326 11.4667 183.635 11.15 182.685 11.15C181.718 11.15 180.943 11.5 180.36 12.2C179.793 12.9 179.468 14.075 179.385 15.725H185.385ZM183.86 2.5L187.36 7.375L186.36 8.075L182.86 4.475L179.235 8.075L178.285 7.4L181.86 2.5H183.86ZM191.783 12.05L189.983 11.6V10.25L193.558 9.8H193.633L194.158 10.25V11.3L194.133 11.9C194.733 11.3667 195.525 10.8833 196.508 10.45C197.492 10.0167 198.433 9.8 199.333 9.8C200.383 9.8 201.192 10 201.758 10.4C202.342 10.8 202.75 11.4167 202.983 12.25C203.217 13.0667 203.333 14.175 203.333 15.575V22.575L205.083 22.75V24H199.158V22.775L200.708 22.575V15.55C200.708 14.5667 200.642 13.8 200.508 13.25C200.375 12.6833 200.125 12.2667 199.758 12C199.392 11.7167 198.858 11.575 198.158 11.575C197.558 11.575 196.917 11.725 196.233 12.025C195.55 12.325 194.942 12.675 194.408 13.075V22.55L196.108 22.775V24H190.208V22.775L191.783 22.55V12.05ZM231.917 28.95C231.167 28.95 230.459 28.825 229.792 28.575C229.126 28.325 228.517 28.0167 227.967 27.65C227.434 27.3 226.792 26.8333 226.042 26.25C225.226 25.6167 224.534 25.125 223.967 24.775C223.417 24.425 222.851 24.1917 222.267 24.075C221.651 24.2083 221.051 24.275 220.467 24.275C218.784 24.275 217.351 23.8833 216.167 23.1C214.984 22.3167 214.092 21.2167 213.492 19.8C212.892 18.3667 212.592 16.7083 212.592 14.825C212.592 12.9083 212.951 11.225 213.667 9.775C214.401 8.325 215.401 7.20833 216.667 6.425C217.934 5.625 219.367 5.225 220.967 5.225C223.567 5.225 225.551 6.05 226.917 7.7C228.284 9.33333 228.967 11.6 228.967 14.5C228.967 16.65 228.517 18.5083 227.617 20.075C226.734 21.6417 225.534 22.7833 224.017 23.5C224.767 23.5667 225.492 23.75 226.192 24.05C226.892 24.35 227.717 24.775 228.667 25.325C229.717 25.8917 230.567 26.3083 231.217 26.575C231.867 26.8417 232.534 26.975 233.217 26.975C233.501 26.975 233.759 26.9583 233.992 26.925L234.292 28C233.992 28.3167 233.634 28.55 233.217 28.7C232.801 28.8667 232.367 28.95 231.917 28.95ZM220.742 22.95C222.359 22.95 223.634 22.2333 224.567 20.8C225.501 19.35 225.967 17.2583 225.967 14.525C225.967 12.0083 225.517 10.05 224.617 8.65C223.717 7.23333 222.451 6.525 220.817 6.525C219.201 6.525 217.917 7.225 216.967 8.625C216.034 10.025 215.567 12.0917 215.567 14.825C215.567 17.325 216.017 19.3083 216.917 20.775C217.834 22.225 219.109 22.95 220.742 22.95ZM242.356 24.225C241.89 24.225 241.54 24.1333 241.306 23.95C241.09 23.7667 240.981 23.4667 240.981 23.05V22.2C240.431 22.75 239.74 23.2333 238.906 23.65C238.09 24.0667 237.265 24.275 236.431 24.275C234.881 24.275 233.781 23.8583 233.131 23.025C232.481 22.1917 232.156 20.8167 232.156 18.9V11.65L230.756 11.25V10.15L234.256 9.825H234.281L234.756 10.125V18.7C234.756 19.6667 234.823 20.425 234.956 20.975C235.106 21.5083 235.356 21.9083 235.706 22.175C236.073 22.425 236.598 22.55 237.281 22.55C237.948 22.55 238.573 22.4083 239.156 22.125C239.74 21.8417 240.248 21.5083 240.681 21.125V11.65L238.881 11.25V10.15L242.681 9.825H242.706L243.281 10.125V22.725H244.781L244.756 23.85C244.29 23.9667 243.881 24.0583 243.531 24.125C243.198 24.1917 242.806 24.225 242.356 24.225ZM246.777 20.25C246.777 18.6833 247.561 17.5333 249.127 16.8C250.694 16.05 252.677 15.65 255.077 15.6V14.9C255.077 14.1167 254.994 13.5 254.827 13.05C254.661 12.6 254.369 12.275 253.952 12.075C253.552 11.8583 252.977 11.75 252.227 11.75C251.377 11.75 250.611 11.875 249.927 12.125C249.261 12.3583 248.594 12.65 247.927 13L247.302 11.7C247.519 11.5167 247.919 11.275 248.502 10.975C249.086 10.675 249.761 10.4083 250.527 10.175C251.294 9.94167 252.061 9.825 252.827 9.825C254.011 9.825 254.944 9.99167 255.627 10.325C256.327 10.6417 256.827 11.1583 257.127 11.875C257.427 12.5917 257.577 13.55 257.577 14.75V22.775H259.052V23.875C258.719 23.9583 258.294 24.0417 257.777 24.125C257.277 24.2083 256.836 24.25 256.452 24.25C255.986 24.25 255.669 24.175 255.502 24.025C255.336 23.8917 255.252 23.5833 255.252 23.1V22.275C254.752 22.775 254.136 23.2333 253.402 23.65C252.686 24.0667 251.869 24.275 250.952 24.275C249.752 24.275 248.752 23.9333 247.952 23.25C247.169 22.55 246.777 21.55 246.777 20.25ZM252.027 22.575C252.461 22.575 252.961 22.4417 253.527 22.175C254.094 21.9083 254.611 21.5917 255.077 21.225V16.925C253.261 16.925 251.886 17.2083 250.952 17.775C250.036 18.325 249.577 19.05 249.577 19.95C249.577 20.85 249.794 21.5167 250.227 21.95C250.677 22.3667 251.277 22.575 252.027 22.575ZM262.291 12.05L260.491 11.6V10.25L264.066 9.8H264.141L264.666 10.25V11.3L264.641 11.9C265.241 11.3667 266.033 10.8833 267.016 10.45C267.999 10.0167 268.941 9.8 269.841 9.8C270.891 9.8 271.699 10 272.266 10.4C272.849 10.8 273.258 11.4167 273.491 12.25C273.724 13.0667 273.841 14.175 273.841 15.575V22.575L275.591 22.75V24H269.666V22.775L271.216 22.575V15.55C271.216 14.5667 271.149 13.8 271.016 13.25C270.883 12.6833 270.633 12.2667 270.266 12C269.899 11.7167 269.366 11.575 268.666 11.575C268.066 11.575 267.424 11.725 266.741 12.025C266.058 12.325 265.449 12.675 264.916 13.075V22.55L266.616 22.775V24H260.716V22.775L262.291 22.55V12.05ZM283.368 30.75C281.234 30.75 279.684 30.4083 278.718 29.725C277.768 29.0583 277.293 28.1333 277.293 26.95C277.293 26.2167 277.518 25.5417 277.968 24.925C278.434 24.3083 278.984 23.8417 279.618 23.525C278.851 23.0917 278.468 22.3917 278.468 21.425C278.468 20.825 278.643 20.2583 278.993 19.725C279.343 19.1917 279.801 18.7833 280.368 18.5C279.534 18.1333 278.893 17.6083 278.443 16.925C278.009 16.2417 277.793 15.4333 277.793 14.5C277.793 13.5333 278.059 12.6917 278.593 11.975C279.143 11.2583 279.859 10.7083 280.743 10.325C281.643 9.94167 282.593 9.75 283.593 9.75C285.276 9.75 286.593 10.1 287.543 10.8C287.793 10.55 288.176 10.3083 288.693 10.075C289.209 9.84167 289.759 9.725 290.343 9.725H291.193V11.925H288.443C288.843 12.5417 289.043 13.2583 289.043 14.075C289.043 15.0583 288.793 15.9333 288.293 16.7C287.809 17.45 287.126 18.0333 286.243 18.45C285.376 18.8667 284.393 19.075 283.293 19.075C282.576 19.075 281.934 19 281.368 18.85C281.134 19.0833 280.943 19.3417 280.793 19.625C280.643 19.9083 280.568 20.1833 280.568 20.45C280.568 21.05 280.768 21.4667 281.168 21.7C281.568 21.9167 282.284 22.025 283.318 22.025H286.143C287.759 22.025 288.959 22.3333 289.743 22.95C290.526 23.5667 290.918 24.4417 290.918 25.575C290.918 26.525 290.576 27.3917 289.893 28.175C289.209 28.975 288.284 29.6 287.118 30.05C285.968 30.5167 284.718 30.75 283.368 30.75ZM283.543 17.7C285.443 17.7 286.393 16.575 286.393 14.325C286.393 13.2083 286.143 12.3917 285.643 11.875C285.159 11.3417 284.426 11.075 283.443 11.075C282.526 11.075 281.801 11.3333 281.268 11.85C280.734 12.35 280.468 13.1583 280.468 14.275C280.468 15.325 280.718 16.1583 281.218 16.775C281.734 17.3917 282.509 17.7 283.543 17.7ZM283.593 29.3C284.409 29.3 285.176 29.175 285.893 28.925C286.626 28.6917 287.218 28.3333 287.668 27.85C288.118 27.3833 288.343 26.8333 288.343 26.2C288.343 25.45 288.143 24.9 287.743 24.55C287.343 24.2167 286.568 24.05 285.418 24.05H282.468C281.801 24.05 281.276 24.0083 280.893 23.925C280.209 24.675 279.868 25.5167 279.868 26.45C279.868 27.3833 280.151 28.0917 280.718 28.575C281.284 29.0583 282.243 29.3 283.593 29.3Z" fill="#FFFACD"/>
</svg>
